<svg width="1093" height="1052" viewBox="0 0 1093 1052" fill="none" xmlns="http://www.w3.org/2000/svg">
<path d="M1059.17 378.977C1131.4 588.07 1088.06 848.16 928.304 970.556C767.698 1092.1 489.825 1075.95 285.881 933.157C81.9373 790.363 -48.9267 522.622 17.3551 322.029C84.4866 121.436 347.064 -11.1592 573.102 0.740404C798.29 13.49 986.938 169.884 1059.17 378.977Z" fill="#474C58"/>
<g clip-path="url(#clip0_28_122)">
<path d="M394.494 750.282C367.511 750.282 340.568 749.799 313.665 748.833C275.225 747.452 235.475 746.025 198.53 725.534C172.685 711.201 149.795 688.205 132.335 659.03C120.666 639.256 112.109 617.803 106.966 595.426C97.3723 554.684 97.699 512.235 107.919 471.646C111.501 457.73 116.438 444.199 122.66 431.246C149.603 375.453 198.745 338 257.486 328.492C257.971 328.429 258.462 328.419 258.949 328.461C259.213 328.475 259.477 328.49 259.745 328.479L260.091 328.369C260.977 328.061 261.887 327.828 262.811 327.671C353.405 314.184 449.176 341.473 539.764 406.584C609.806 456.936 702.631 484.049 823.545 489.474L825.262 489.563C858.921 491.497 891.48 505.374 919.422 529.696C947.001 553.702 967.709 585.73 979.306 622.32C980.731 626.781 982.038 631.425 983.19 636.121C984.262 640.486 984.187 645.054 982.97 649.38C981.754 653.707 979.438 657.645 976.249 660.811V660.82L975.948 661.13C975.223 661.851 974.46 662.542 973.681 663.186L972.764 663.941C965.036 670.307 958.933 675.335 951.629 679.24C946.757 681.827 941.576 683.783 936.21 685.061C906.745 692.245 876.823 698.905 847.274 704.858C789.89 716.429 730.993 725.974 672.22 733.227C580.081 744.588 487.331 750.284 394.494 750.282V750.282ZM258.262 330.437C258.082 330.435 257.901 330.448 257.723 330.474C199.531 339.893 150.854 376.978 124.178 432.219C118.017 445.043 113.129 458.44 109.583 472.219C99.4562 512.448 99.1335 554.52 108.642 594.899C113.735 617.063 122.208 638.31 133.765 657.896C151.054 686.784 173.71 709.55 199.284 723.731C235.898 744.039 275.46 745.46 313.72 746.833C433.382 751.109 553.196 745.894 672.035 731.238C730.769 723.989 789.628 714.451 846.975 702.888C876.503 696.939 906.405 690.284 935.85 683.105C941.087 681.859 946.143 679.95 950.898 677.426C958.055 673.6 964.1 668.619 971.753 662.314L972.67 661.56C973.34 661.006 973.998 660.414 974.628 659.799L974.808 659.609C981.098 653.271 983.543 644.907 981.518 636.665V636.664C980.379 632.018 979.086 627.424 977.675 623.009C953.985 548.263 892.701 495.439 825.178 491.562L823.471 491.472C768.239 488.993 719.907 482.128 675.72 470.481C622.97 456.579 576.918 435.651 538.844 408.281C448.602 343.418 353.231 316.231 263.033 329.654C262.19 329.8 261.361 330.015 260.554 330.297L259.931 330.471C259.577 330.487 259.223 330.483 258.869 330.458C258.661 330.448 258.459 330.437 258.262 330.437H258.262Z" fill="#F0F0F0"/>
<path d="M379.327 448.056C376.829 445.659 374.274 432.294 371.085 430.937C373.469 436.206 371.738 437.601 371.725 443.383C371.755 446.666 371.372 449.94 370.584 453.128H316.56V410.966C316.559 407.178 317.306 403.426 318.755 399.926C320.205 396.426 322.33 393.246 325.009 390.567C327.687 387.889 330.868 385.764 334.368 384.314C337.868 382.864 341.619 382.118 345.407 382.118C346.853 382.147 348.29 382.357 349.683 382.744C354.327 383.998 358.559 386.451 361.955 389.857C365.352 393.262 367.793 397.501 369.034 402.148C373.152 417.202 379.702 442.26 379.327 448.056Z" fill="#2F2E41"/>
<path d="M319.73 499.923L319.756 467.06L300.439 468.786L307.256 489.513L304.065 541.609C302.518 541.956 301.105 542.746 299.999 543.883C298.892 545.019 298.141 546.453 297.835 548.009C297.53 549.566 297.684 551.177 298.278 552.648C298.873 554.118 299.882 555.384 301.184 556.29C302.485 557.196 304.022 557.705 305.608 557.753C307.193 557.801 308.758 557.386 310.112 556.56C311.466 555.734 312.55 554.532 313.232 553.101C313.915 551.669 314.166 550.07 313.955 548.498L319.73 499.923Z" fill="#FFB6B6"/>
<path d="M357.746 734.76L365.55 734.759L369.263 704.657H357.744L357.746 734.76Z" fill="#FFB6B6"/>
<path d="M355.103 730.91L367.44 730.174V735.459L379.169 743.56C379.748 743.96 380.185 744.535 380.414 745.2C380.644 745.866 380.655 746.587 380.445 747.259C380.236 747.932 379.817 748.519 379.25 748.936C378.683 749.354 377.997 749.579 377.293 749.579H362.605L360.073 744.35L359.085 749.579H353.547L355.103 730.91Z" fill="#2F2E41"/>
<path d="M312.62 734.76L320.425 734.759L324.137 704.657H312.619L312.62 734.76Z" fill="#FFB6B6"/>
<path d="M309.977 730.91L322.314 730.174V735.459L334.044 743.56C334.623 743.96 335.059 744.535 335.289 745.2C335.518 745.866 335.529 746.587 335.32 747.259C335.11 747.932 334.691 748.519 334.124 748.936C333.557 749.354 332.872 749.579 332.167 749.579H317.48L314.948 744.35L313.96 749.579H308.422L309.977 730.91Z" fill="#2F2E41"/>
<path d="M350.796 431.571L334.629 431.888L323.217 443.935L314.067 445.276C309.929 445.883 306.124 447.893 303.288 450.968C300.453 454.044 298.759 457.999 298.49 462.174L300.075 470.88H309.585L315.087 503.183C312.948 508.634 312.802 512.937 317.193 514.627L330.825 540.304L371.085 522.235C373.126 518.725 373.781 515.199 371.694 511.771L374.572 462.321H384.249C384.249 453.072 381.121 445.275 371.929 444.246C368.279 443.851 364.612 443.641 360.94 443.618L350.796 431.571Z" fill="#E6E6E6"/>
<path d="M371.085 522.235C371.085 522.235 331.776 529.209 317.193 514.627C317.193 514.627 315.713 517.14 313.482 521.308C312.841 522.507 311.602 523.319 310.853 524.771C310.173 526.091 308.424 527.713 307.683 529.21C307.087 530.414 308.043 531.987 307.423 533.288C299.955 548.952 291.23 571.047 293.101 585.636C294.307 595.045 296.799 616.938 299.423 640.453C299.628 642.29 297.967 644.65 298.173 646.502C298.367 648.248 300.428 649.485 300.623 651.236C300.752 652.398 299.312 653.583 299.441 654.744C299.582 656.017 301.291 657.266 301.432 658.534C305.026 691.002 308.317 721.315 308.317 721.315H326.704L330.173 652.083L327.338 626.847L333.995 575.809L343.188 624.311L344.371 651.608L354.086 722.583H371.085V653.875L372.353 650.306L371.085 645.728L372.353 640.796L371.085 635.424V522.235Z" fill="#2F2E41"/>
<path d="M355.759 422.196C353.254 425.523 349.691 427.897 345.657 428.929C341.623 429.96 337.358 429.587 333.564 427.871C329.77 426.154 326.674 423.197 324.785 419.486C322.896 415.775 322.328 411.531 323.173 407.454C324.018 403.376 326.227 399.709 329.436 397.054C332.644 394.4 336.661 392.917 340.824 392.85C344.988 392.784 349.05 394.137 352.342 396.688C355.633 399.238 357.958 402.833 358.934 406.882C358.986 407.101 359.031 407.32 359.074 407.546C359.589 410.084 359.56 412.702 358.989 415.227C358.417 417.752 357.316 420.128 355.759 422.196V422.196Z" fill="#FFB6B6"/>
<path d="M351.937 411.74C351.549 409.788 350.565 408.005 349.122 406.636C349.265 408.505 349.005 410.384 348.362 412.145C343.542 412.572 338.7 411.613 334.407 409.381C331.174 407.187 327.059 407.378 322.266 409.381C322.265 407.05 322.724 404.741 323.616 402.587C324.508 400.433 325.816 398.476 327.465 396.828C329.113 395.179 331.07 393.871 333.224 392.979C335.378 392.087 337.687 391.628 340.018 391.629H343.188C347.896 391.63 352.411 393.5 355.74 396.829C359.069 400.158 360.94 404.673 360.94 409.381C358.015 410.43 355.002 411.22 351.937 411.74V411.74Z" fill="#2F2E41"/>
<path d="M213.249 638C241.416 638 264.249 615.167 264.249 587C264.249 558.833 241.416 536 213.249 536C185.083 536 162.249 558.833 162.249 587C162.249 615.167 185.083 638 213.249 638Z" fill="#F0F0F0"/>
<path d="M538.249 404C566.416 404 589.249 381.167 589.249 353C589.249 324.833 566.416 302 538.249 302C510.083 302 487.249 324.833 487.249 353C487.249 381.167 510.083 404 538.249 404Z" fill="#F0F0F0"/>
<path d="M943.249 646C971.416 646 994.249 623.167 994.249 595C994.249 566.833 971.416 544 943.249 544C915.083 544 892.249 566.833 892.249 595C892.249 623.167 915.083 646 943.249 646Z" fill="#F0F0F0"/>
<path d="M630.249 358.562V474.208C630.249 476.61 629.302 478.915 627.612 480.623C625.923 482.33 623.628 483.302 621.226 483.327C621.192 483.331 621.159 483.332 621.126 483.331H607.666C596.896 483.331 586.568 479.053 578.953 471.438C571.338 463.823 567.059 453.494 567.059 442.725V358.562C567.059 356.142 568.021 353.822 569.732 352.111C571.442 350.4 573.763 349.438 576.183 349.438H581.637C579.11 356.809 613.402 359.912 615.285 349.438H621.126C623.545 349.438 625.866 350.4 627.577 352.111C629.288 353.822 630.249 356.142 630.249 358.562V358.562Z" fill="#009C93"/>
<path d="M590.306 340.791C590.307 340.474 590.433 340.17 590.657 339.946C590.881 339.722 591.185 339.596 591.502 339.595H599.632C599.949 339.596 600.252 339.722 600.475 339.947C600.699 340.171 600.824 340.474 600.824 340.791C600.824 341.107 600.699 341.411 600.475 341.635C600.252 341.859 599.949 341.986 599.632 341.987H591.502C591.185 341.986 590.881 341.86 590.657 341.636C590.433 341.412 590.307 341.108 590.306 340.791V340.791Z" fill="#3F3D56"/>
<path d="M623.919 498H572.503C568.514 497.995 564.689 496.409 561.869 493.588C559.048 490.768 557.461 486.943 557.457 482.954V402.113C557.174 401.91 556.944 401.643 556.786 401.334C556.627 401.024 556.545 400.682 556.545 400.334V392.204C556.545 391.856 556.627 391.513 556.786 391.204C556.944 390.895 557.174 390.628 557.457 390.425V388.243C557.174 388.04 556.944 387.773 556.786 387.464C556.627 387.155 556.545 386.812 556.545 386.465V378.334C556.545 377.986 556.627 377.644 556.786 377.335C556.944 377.025 557.174 376.758 557.457 376.556V372.612C557.108 372.425 556.817 372.146 556.614 371.806C556.412 371.466 556.305 371.078 556.306 370.682V362.552C556.305 362.156 556.411 361.767 556.614 361.427C556.817 361.087 557.108 360.809 557.457 360.622V349.815C557.461 345.826 559.048 342.001 561.869 339.181C564.689 336.36 568.514 334.774 572.503 334.769H623.919C627.908 334.774 631.732 336.36 634.553 339.181C637.374 342.002 638.96 345.826 638.965 349.815V373.371C639.236 373.541 639.459 373.776 639.614 374.056C639.769 374.335 639.85 374.65 639.851 374.969V390.472C639.85 390.792 639.769 391.106 639.614 391.386C639.459 391.665 639.236 391.901 638.965 392.071V482.954C638.96 486.943 637.374 490.767 634.553 493.588C631.732 496.409 627.908 497.995 623.919 498V498ZM572.503 336.769C569.044 336.773 565.728 338.149 563.282 340.594C560.836 343.04 559.46 346.356 559.456 349.815V362.323L558.495 362.36C558.445 362.362 558.397 362.383 558.362 362.418C558.327 362.454 558.307 362.502 558.306 362.552V370.682C558.307 370.732 558.327 370.78 558.362 370.815C558.397 370.851 558.445 370.872 558.495 370.874L559.456 370.911V377.96L558.696 378.147C558.654 378.158 558.616 378.181 558.589 378.215C558.562 378.249 558.546 378.291 558.545 378.334V386.465C558.546 386.508 558.562 386.55 558.589 386.584C558.616 386.617 558.654 386.641 558.696 386.651L559.456 386.839V391.829L558.696 392.017C558.654 392.027 558.616 392.051 558.589 392.085C558.562 392.118 558.546 392.16 558.545 392.204V400.334C558.546 400.377 558.562 400.419 558.589 400.453C558.616 400.487 558.654 400.511 558.696 400.521L559.456 400.708V482.954C559.46 486.413 560.836 489.729 563.282 492.175C565.728 494.62 569.044 495.996 572.503 496H623.919C627.378 495.996 630.694 494.62 633.139 492.174C635.585 489.729 636.961 486.413 636.965 482.954V390.358H637.851V375.083H636.965V349.815C636.961 346.356 635.585 343.04 633.139 340.594C630.694 338.149 627.378 336.773 623.919 336.769L572.503 336.769Z" fill="#1A8CD8"/>
<path d="M604.176 341.987C604.836 341.987 605.371 341.451 605.371 340.791C605.371 340.131 604.836 339.595 604.176 339.595C603.515 339.595 602.98 340.131 602.98 340.791C602.98 341.451 603.515 341.987 604.176 341.987Z" fill="#3F3D56"/>
<path d="M344.08 572.403H210.293C208.393 572.398 206.572 571.641 205.229 570.298C203.885 568.954 203.128 567.134 203.123 565.234V500.045C203.128 498.145 203.885 496.324 205.228 494.981C206.571 493.637 208.392 492.88 210.292 492.875H344.079C345.979 492.88 347.8 493.637 349.143 494.98C350.487 496.323 351.244 498.144 351.249 500.044V565.233C351.244 567.133 350.487 568.954 349.144 570.297C347.801 571.641 345.98 572.398 344.08 572.403Z" fill="white"/>
<path d="M344.08 572.403H210.293C208.393 572.398 206.572 571.641 205.229 570.298C203.885 568.954 203.128 567.134 203.123 565.234V500.045C203.128 498.145 203.885 496.324 205.228 494.981C206.571 493.637 208.392 492.88 210.292 492.875H344.079C345.979 492.88 347.8 493.637 349.143 494.98C350.487 496.323 351.244 498.144 351.249 500.044V565.233C351.244 567.133 350.487 568.954 349.144 570.297C347.801 571.641 345.98 572.398 344.08 572.403ZM210.293 494.875C208.923 494.879 207.61 495.425 206.641 496.394C205.673 497.363 205.127 498.676 205.123 500.046V565.233C205.127 566.603 205.673 567.916 206.642 568.885C207.611 569.853 208.924 570.399 210.294 570.403H344.078C345.448 570.399 346.761 569.853 347.73 568.884C348.699 567.915 349.245 566.602 349.249 565.232V500.045C349.245 498.675 348.699 497.362 347.73 496.393C346.761 495.425 345.448 494.879 344.078 494.875L210.293 494.875Z" fill="#1A8CD8"/>
<path d="M284.357 562.769C257.971 562.769 230.458 562.517 220.193 562.353C218.842 562.325 217.556 561.771 216.609 560.808C215.661 559.844 215.128 558.549 215.123 557.198V503.236C215.124 502.753 215.316 502.289 215.657 501.946C215.999 501.604 216.462 501.411 216.946 501.409H337.422C337.905 501.41 338.369 501.602 338.712 501.943C339.054 502.285 339.247 502.748 339.249 503.232V539.844C339.227 545.82 336.863 551.55 332.664 555.803C328.466 560.057 322.768 562.495 316.792 562.596C307.225 562.72 295.896 562.769 284.357 562.769Z" fill="#009C93"/>
<path d="M330.271 536.48H221.411C220.5 536.477 219.611 536.194 218.866 535.669C218.121 535.144 217.556 534.402 217.247 533.544L204.926 498.978C204.688 498.311 204.614 497.597 204.71 496.896C204.806 496.195 205.068 495.527 205.476 494.948C205.883 494.37 206.423 493.897 207.051 493.57C207.679 493.244 208.376 493.073 209.084 493.071L345.156 492.882C345.803 492.881 346.442 493.022 347.028 493.295C347.614 493.569 348.134 493.967 348.549 494.463C348.965 494.958 349.267 495.539 349.434 496.164C349.601 496.789 349.628 497.443 349.515 498.08L349.62 498.124L349.23 499.036L349.226 499.045L334.331 533.8C333.991 534.596 333.425 535.274 332.704 535.751C331.982 536.227 331.135 536.481 330.271 536.48V536.48ZM345.162 494.882L209.087 495.071C208.7 495.072 208.318 495.166 207.974 495.345C207.63 495.523 207.334 495.782 207.111 496.099C206.888 496.416 206.744 496.782 206.691 497.166C206.639 497.55 206.68 497.941 206.81 498.307L219.13 532.872C219.3 533.341 219.61 533.748 220.018 534.036C220.426 534.323 220.913 534.478 221.413 534.48H330.271C330.744 534.48 331.207 534.341 331.602 534.081C331.997 533.82 332.307 533.449 332.492 533.013L347.388 498.257L348.12 498.571L347.388 498.257C347.546 497.889 347.61 497.487 347.574 497.088C347.538 496.689 347.404 496.305 347.184 495.97C346.963 495.636 346.663 495.361 346.31 495.171C345.957 494.981 345.563 494.882 345.162 494.882V494.882Z" fill="#1A8CD8"/>
<path d="M276.983 544.004C281.691 544.004 285.507 540.188 285.507 535.48C285.507 530.772 281.691 526.956 276.983 526.956C272.275 526.956 268.459 530.772 268.459 535.48C268.459 540.188 272.275 544.004 276.983 544.004Z" fill="white"/>
<path d="M598.983 470.004C603.691 470.004 607.507 466.188 607.507 461.48C607.507 456.772 603.691 452.956 598.983 452.956C594.275 452.956 590.459 456.772 590.459 461.48C590.459 466.188 594.275 470.004 598.983 470.004Z" fill="white"/>
<path d="M921.379 585.12L898.609 562.64C897.501 561.537 896.185 560.664 894.739 560.07C893.292 559.476 891.743 559.174 890.179 559.18H890.099C888.523 559.185 886.965 559.502 885.512 560.113C884.06 560.724 882.744 561.617 881.639 562.74C876.548 567.893 873.652 574.818 873.561 582.061C873.469 589.304 876.189 596.301 881.149 601.58C881.389 601.84 881.639 602.09 881.889 602.34C883.274 603.717 884.803 604.94 886.449 605.99C890.95 608.898 896.2 610.437 901.559 610.42H901.729C905.408 610.407 909.047 609.666 912.437 608.238C915.827 606.81 918.9 604.723 921.479 602.1C923.713 599.833 924.958 596.772 924.939 593.589C924.92 590.406 923.64 587.361 921.379 585.12V585.12ZM920.059 600.69C915.831 604.949 910.265 607.62 904.298 608.254C898.33 608.888 892.327 607.446 887.299 604.17C885.861 603.218 884.518 602.13 883.289 600.92C878.383 596.074 875.602 589.478 875.559 582.583C875.516 575.687 878.214 569.057 883.059 564.15C883.98 563.211 885.078 562.466 886.291 561.956C887.503 561.446 888.804 561.182 890.119 561.18H890.179C891.481 561.175 892.771 561.427 893.975 561.922C895.18 562.416 896.275 563.142 897.199 564.06L919.969 586.55C921.854 588.414 922.922 590.95 922.939 593.601C922.956 596.252 921.92 598.802 920.059 600.69V600.69Z" fill="#1A8CD8"/>
<path d="M846.669 511.34L823.899 488.85C821.658 486.626 818.626 485.382 815.469 485.39H815.399C813.822 485.396 812.261 485.715 810.807 486.328C809.353 486.94 808.035 487.835 806.929 488.96C802.72 493.235 799.991 498.745 799.142 504.684C798.292 510.622 799.367 516.677 802.209 521.96L802.219 521.97C803.392 524.131 804.848 526.125 806.549 527.9C806.739 528.12 806.959 528.34 807.179 528.56C812.408 533.75 819.482 536.656 826.849 536.64H827.029C830.708 536.625 834.348 535.88 837.737 534.451C841.127 533.021 844.2 530.934 846.779 528.31C847.886 527.188 848.762 525.86 849.355 524.4C849.949 522.94 850.249 521.378 850.239 519.802C850.229 518.226 849.908 516.668 849.296 515.216C848.683 513.764 847.791 512.447 846.669 511.34V511.34ZM845.349 526.91C842.956 529.345 840.103 531.282 836.957 532.608C833.811 533.935 830.433 534.626 827.019 534.64H826.849C821.721 534.638 816.709 533.12 812.442 530.276C808.175 527.433 804.843 523.392 802.867 518.66C800.891 513.928 800.358 508.718 801.335 503.684C802.312 498.651 804.756 494.018 808.359 490.37C810.223 488.485 812.759 487.417 815.41 487.4C818.062 487.383 820.611 488.419 822.499 490.28L845.269 512.76C847.153 514.627 848.219 517.166 848.234 519.818C848.249 522.471 847.212 525.021 845.349 526.91L845.349 526.91Z" fill="#1A8CD8"/>
<path d="M922.834 592.188L897.731 567.394C896.085 565.772 893.863 564.869 891.552 564.883C889.241 564.898 887.03 565.828 885.404 567.471C883.37 569.525 881.761 571.961 880.669 574.638C879.577 577.315 879.023 580.181 879.039 583.072C879.056 585.963 879.642 588.822 880.764 591.487C881.886 594.151 883.523 596.568 885.58 598.6C887.637 600.632 890.074 602.238 892.752 603.327C895.43 604.416 898.297 604.966 901.188 604.947C904.079 604.927 906.938 604.338 909.601 603.213C912.264 602.088 914.68 600.449 916.709 598.39L922.834 592.188Z" fill="#009C93"/>
<path d="M848.129 518.403L823.026 493.61C821.38 491.988 819.157 491.085 816.846 491.099C814.535 491.113 812.324 492.044 810.698 493.686C808.664 495.741 807.056 498.177 805.963 500.854C804.871 503.531 804.318 506.396 804.334 509.288C804.35 512.179 804.936 515.038 806.059 517.703C807.181 520.367 808.817 522.784 810.874 524.816C812.931 526.847 815.368 528.454 818.047 529.543C820.725 530.632 823.591 531.182 826.483 531.163C829.374 531.143 832.232 530.554 834.896 529.429C837.559 528.304 839.974 526.665 842.004 524.605L848.129 518.403Z" fill="#009C93"/>
<path d="M895.249 607.63L894.649 609.21C891.829 608.14 889.096 607.067 886.449 605.99C839.569 586.86 817.189 564.47 802.219 521.97L802.209 521.96C801.499 519.96 800.809 517.913 800.139 515.82L801.719 515.31C802.247 517.323 803.02 519.264 804.019 521.09C804.839 523.42 805.683 525.69 806.549 527.9C820.619 563.77 841.369 584.27 881.149 601.58C883.149 602.45 885.199 603.313 887.299 604.17C889.738 605.759 892.425 606.928 895.249 607.63V607.63Z" fill="#1A8CD8"/>
<path d="M823.482 534.82L822.076 536.243L874.014 587.541L875.42 586.117L823.482 534.82Z" fill="#1A8CD8"/>
<path d="M383.765 492.315L383.791 459.452L364.474 461.178L371.291 481.905L346.544 519.419C344.997 519.766 343.584 520.556 342.477 521.692C341.371 522.829 340.62 524.263 340.314 525.819C340.009 527.375 340.163 528.987 340.757 530.457C341.352 531.927 342.361 533.193 343.663 534.099C344.964 535.006 346.501 535.514 348.086 535.562C349.672 535.61 351.237 535.196 352.59 534.37C353.944 533.544 355.029 532.342 355.711 530.91C356.394 529.478 356.645 527.879 356.434 526.307L383.765 492.315Z" fill="#FFB6B6"/>
</g>
<defs>
<clipPath id="clip0_28_122">
<rect width="894.249" height="448.282" fill="white" transform="translate(100 302)"/>
</clipPath>
</defs>
</svg>
