<svg width="56" height="56" viewBox="0 0 56 56" fill="none" xmlns="http://www.w3.org/2000/svg">
<path d="M44.3333 0H11.6667C5.22433 0 0 5.22433 0 11.6667V44.3333C0 50.7757 5.22433 56 11.6667 56H44.3333C50.778 56 56 50.7757 56 44.3333V11.6667C56 5.22433 50.778 0 44.3333 0ZM33.9127 45.71C32.9677 45.892 32.6667 45.311 32.6667 44.814V39.6923C32.6667 37.9493 32.0553 36.8153 31.3833 36.2367C35.5413 35.7747 39.9093 34.195 39.9093 27.027C39.9093 24.9877 39.1813 23.3217 37.989 22.0173C38.1803 21.546 38.8197 19.6467 37.8047 17.0777C37.8047 17.0777 36.239 16.576 32.676 18.991C31.1827 18.571 29.5867 18.368 28 18.3587C26.4133 18.3657 24.8173 18.571 23.3263 18.9863C19.761 16.5713 18.193 17.073 18.193 17.073C17.1803 19.6443 17.8197 21.5413 18.0133 22.015C16.8187 23.3217 16.0907 24.9853 16.0907 27.0247C16.0907 34.174 20.447 35.777 24.5957 36.2507C24.0613 36.7173 23.5783 37.5387 23.4103 38.7473C22.344 39.2233 19.6443 40.047 17.9783 37.1933C17.9783 37.1933 16.9913 35.4013 15.1153 35.2683C15.1153 35.2683 13.2953 35.245 14.987 36.4047C14.987 36.4047 16.212 36.9787 17.0613 39.1347C17.0613 39.1347 18.1417 42.4667 23.3333 41.3373V44.8117C23.3333 45.304 23.0323 45.8827 22.1013 45.71C14.6813 43.2437 9.33333 36.246 9.33333 28C9.33333 17.689 17.6913 9.33333 28 9.33333C38.3087 9.33333 46.6667 17.689 46.6667 28C46.6667 36.2437 41.3257 43.239 33.9127 45.71Z" fill="#EEEEEE"/>
</svg>
