<svg width="581" height="501" viewBox="0 0 581 501" fill="none" xmlns="http://www.w3.org/2000/svg">
<path d="M568.386 181.398C605.364 288.818 556.941 430.576 474.622 479.883C391.863 529.19 275.208 486.046 172.639 413.406C70.0706 341.207 -17.9711 239.951 3.15893 154.544C24.7291 68.6963 155.471 -1.30234 282.251 0.0183877C408.591 1.33912 531.409 73.9792 568.386 181.398Z" fill="#474C58"/>
<g clip-path="url(#clip0_1_68)">
<path d="M486.519 154.331H94.4569C94.2735 154.331 94.0975 154.258 93.9678 154.128C93.838 153.998 93.7651 153.822 93.7651 153.639C93.7651 153.455 93.838 153.279 93.9678 153.149C94.0975 153.019 94.2735 152.947 94.4569 152.947H486.519C486.703 152.947 486.879 153.019 487.008 153.149C487.138 153.279 487.211 153.455 487.211 153.639C487.211 153.822 487.138 153.998 487.008 154.128C486.879 154.258 486.703 154.331 486.519 154.331Z" fill="#E6E6E6"/>
<path d="M114.073 133.553C117.304 133.553 119.923 130.874 119.923 127.569C119.923 124.264 117.304 121.585 114.073 121.585C110.842 121.585 108.222 124.264 108.222 127.569C108.222 130.874 110.842 133.553 114.073 133.553Z" fill="#E6E6E6"/>
<path d="M134.283 133.553C137.514 133.553 140.133 130.874 140.133 127.569C140.133 124.264 137.514 121.585 134.283 121.585C131.052 121.585 128.432 124.264 128.432 127.569C128.432 130.874 131.052 133.553 134.283 133.553Z" fill="#E6E6E6"/>
<path d="M154.493 133.553C157.724 133.553 160.343 130.874 160.343 127.569C160.343 124.264 157.724 121.585 154.493 121.585C151.262 121.585 148.642 124.264 148.642 127.569C148.642 130.874 151.262 133.553 154.493 133.553Z" fill="#E6E6E6"/>
<path d="M177.537 132.298C177.445 132.298 177.354 132.28 177.269 132.244C177.184 132.208 177.107 132.156 177.043 132.09L173.095 128.053C172.969 127.923 172.898 127.75 172.898 127.569C172.898 127.388 172.969 127.214 173.095 127.085L177.043 123.048C177.172 122.919 177.346 122.846 177.528 122.844C177.711 122.843 177.886 122.914 178.017 123.042C178.147 123.169 178.222 123.343 178.225 123.526C178.227 123.708 178.158 123.884 178.032 124.016L174.558 127.569L178.032 131.122C178.127 131.219 178.192 131.343 178.217 131.477C178.242 131.61 178.228 131.749 178.175 131.874C178.122 132 178.034 132.107 177.92 132.183C177.807 132.258 177.674 132.298 177.537 132.298Z" fill="#E6E6E6"/>
<path d="M184.171 132.298C184.034 132.298 183.901 132.258 183.788 132.183C183.674 132.107 183.586 132 183.533 131.874C183.48 131.749 183.466 131.61 183.491 131.477C183.517 131.343 183.581 131.219 183.676 131.122L187.15 127.569L183.676 124.016C183.55 123.884 183.481 123.708 183.483 123.526C183.486 123.343 183.561 123.169 183.691 123.042C183.822 122.914 183.997 122.843 184.18 122.844C184.362 122.846 184.536 122.919 184.665 123.048L188.612 127.085C188.739 127.214 188.81 127.388 188.81 127.569C188.81 127.75 188.739 127.923 188.612 128.053L184.665 132.09C184.601 132.156 184.524 132.208 184.439 132.244C184.354 132.28 184.263 132.298 184.171 132.298Z" fill="#E6E6E6"/>
<path d="M451.557 122.278H444.217C444.018 122.278 443.821 122.317 443.637 122.393C443.453 122.47 443.286 122.581 443.145 122.722C443.005 122.863 442.893 123.03 442.817 123.214C442.741 123.398 442.702 123.595 442.702 123.794V131.144C442.702 131.343 442.741 131.541 442.817 131.725C442.893 131.908 443.005 132.076 443.145 132.216C443.286 132.357 443.453 132.469 443.637 132.545C443.821 132.621 444.018 132.66 444.217 132.66H451.557C451.959 132.661 452.346 132.501 452.631 132.217C452.916 131.933 453.077 131.547 453.079 131.144V123.794C453.077 123.391 452.916 123.005 452.631 122.721C452.346 122.437 451.959 122.278 451.557 122.278Z" fill="#E6E6E6"/>
<path d="M433.57 122.278H426.23C426.031 122.278 425.834 122.317 425.65 122.393C425.466 122.47 425.299 122.581 425.159 122.722C425.018 122.863 424.906 123.03 424.83 123.214C424.754 123.398 424.715 123.595 424.715 123.794V131.144C424.715 131.343 424.754 131.541 424.83 131.725C424.906 131.908 425.018 132.076 425.159 132.216C425.299 132.357 425.466 132.469 425.65 132.545C425.834 132.621 426.031 132.66 426.23 132.66H433.57C433.973 132.661 434.359 132.501 434.644 132.217C434.93 131.933 435.091 131.547 435.092 131.144V123.794C435.091 123.391 434.93 123.005 434.644 122.721C434.359 122.437 433.973 122.278 433.57 122.278Z" fill="#E6E6E6"/>
<path d="M468.506 122.624H461.166C460.967 122.624 460.77 122.663 460.586 122.739C460.402 122.816 460.235 122.927 460.094 123.068C459.954 123.209 459.842 123.376 459.766 123.56C459.69 123.744 459.651 123.941 459.651 124.14V131.49C459.651 131.69 459.69 131.887 459.766 132.071C459.842 132.255 459.954 132.422 460.094 132.562C460.235 132.703 460.402 132.815 460.586 132.891C460.77 132.967 460.967 133.006 461.166 133.006H468.506C468.908 133.007 469.295 132.847 469.58 132.563C469.865 132.279 470.026 131.893 470.028 131.49V124.14C470.026 123.737 469.865 123.351 469.58 123.067C469.295 122.783 468.908 122.624 468.506 122.624Z" fill="#E6E6E6"/>
<path d="M319.824 125.42H261.152C260.663 125.42 260.193 125.615 259.846 125.962C259.5 126.308 259.305 126.778 259.305 127.268C259.305 127.759 259.5 128.229 259.846 128.575C260.193 128.922 260.663 129.116 261.152 129.116H319.824C320.314 129.116 320.783 128.922 321.13 128.575C321.476 128.229 321.671 127.759 321.671 127.268C321.671 126.778 321.476 126.308 321.13 125.962C320.783 125.615 320.314 125.42 319.824 125.42Z" fill="#E6E6E6"/>
<path d="M221.451 305.556H163.34C160.496 305.556 157.768 306.686 155.758 308.698C153.747 310.71 152.617 313.439 152.617 316.284C152.617 319.13 153.747 321.858 155.758 323.87C157.768 325.882 160.496 327.012 163.34 327.012H221.451C224.295 327.012 227.022 325.882 229.033 323.87C231.044 321.858 232.174 319.13 232.174 316.284C232.174 313.439 231.044 310.71 229.033 308.698C227.022 306.686 224.295 305.556 221.451 305.556Z" fill="white"/>
<path d="M221.451 327.705H163.34C160.312 327.705 157.409 326.501 155.268 324.36C153.128 322.218 151.925 319.313 151.925 316.284C151.925 313.255 153.128 310.351 155.268 308.209C157.409 306.067 160.312 304.864 163.34 304.864H221.451C224.478 304.864 227.381 306.067 229.522 308.209C231.663 310.351 232.865 313.255 232.865 316.284C232.865 319.313 231.663 322.218 229.522 324.36C227.381 326.501 224.478 327.705 221.451 327.705ZM163.34 306.248C160.679 306.248 158.128 307.306 156.247 309.188C154.365 311.07 153.309 313.623 153.309 316.284C153.309 318.946 154.365 321.499 156.247 323.381C158.128 325.263 160.679 326.32 163.34 326.32H221.451C224.111 326.32 226.662 325.263 228.544 323.381C230.425 321.499 231.482 318.946 231.482 316.284C231.482 313.623 230.425 311.07 228.544 309.188C226.662 307.306 224.111 306.248 221.451 306.248H163.34Z" fill="#009C93"/>
<path d="M452.576 193.283H295.543C285.325 193.283 277.042 201.571 277.042 211.794V366.904C277.042 377.127 285.325 385.415 295.543 385.415H452.576C462.794 385.415 471.078 377.127 471.078 366.904V211.794C471.078 201.571 462.794 193.283 452.576 193.283Z" fill="#F2F2F2"/>
<path d="M381.627 272.529C381.145 272.001 380.887 271.305 380.909 270.589C380.931 269.874 381.231 269.195 381.746 268.698C381.852 268.598 381.966 268.508 382.087 268.427L379.772 259.123L384.078 256.287L385.872 269.375C386.167 269.903 386.279 270.515 386.19 271.113C386.102 271.712 385.818 272.265 385.382 272.685C385.132 272.922 384.838 273.107 384.516 273.23C384.195 273.353 383.852 273.411 383.508 273.401C383.164 273.392 382.825 273.315 382.511 273.174C382.196 273.033 381.913 272.832 381.676 272.582C381.66 272.565 381.643 272.547 381.627 272.529Z" fill="#FFB6B6"/>
<path d="M386.091 263.356L380.444 263.881L372.058 234.373C372.034 234.291 369.551 226.004 367.042 224.708C366.108 224.225 365.766 223.937 365.779 223.644C365.794 223.341 366.173 223.188 366.698 222.975C367.226 222.787 367.724 222.524 368.178 222.195C369.322 221.29 368.819 220.418 368.123 219.212C367.988 218.978 367.847 218.734 367.713 218.48C367.316 217.728 367.759 214.533 369.031 208.984C369.41 207.324 370.305 205.826 371.587 204.707C372.87 203.587 374.475 202.904 376.171 202.754C377.242 202.658 378.322 202.777 379.347 203.105C380.372 203.433 381.321 203.963 382.138 204.663C382.955 205.364 383.623 206.221 384.104 207.183C384.585 208.146 384.869 209.196 384.938 210.27L386.041 227.358L386.091 263.356Z" fill="#009C93"/>
<path d="M363.914 368.455L359.986 368.422L358.247 352.909L364.045 352.958L363.914 368.455Z" fill="#FFB6B6"/>
<path d="M351.332 374.704C351.328 375.17 351.51 375.619 351.836 375.951C352.162 376.283 352.607 376.472 353.073 376.477L360.883 376.542L362.25 373.769L362.752 376.556L365.699 376.583L364.955 366.643L363.93 366.575L359.748 366.286L358.399 366.196L358.375 369.008L352.101 373.266C351.866 373.425 351.673 373.64 351.539 373.89C351.405 374.141 351.334 374.42 351.332 374.704Z" fill="#2F2E41"/>
<path d="M405.272 365.584L401.517 366.738L395.179 352.475L400.721 350.771L405.272 365.584Z" fill="#FFB6B6"/>
<path d="M395.162 375.342C395.299 375.787 395.607 376.159 396.019 376.378C396.43 376.596 396.911 376.642 397.357 376.505L404.822 374.209L405.289 371.153L406.609 373.658L409.426 372.793L405.718 363.542L404.72 363.786L400.646 364.774L399.332 365.096L400.158 367.784L395.461 373.738C395.286 373.961 395.166 374.223 395.114 374.503C395.062 374.782 395.078 375.07 395.162 375.342Z" fill="#2F2E41"/>
<path d="M356.013 238.018L348.516 259.814L348.269 261.558C346.38 263.352 348.753 263.943 347.863 264.416C346.973 264.89 346.375 266.216 347.574 266.453C348.773 266.69 348.303 352.961 353.402 356.262C358.501 359.563 370.272 363.228 369.335 358.395C368.399 353.561 368.742 293.871 368.742 293.871C368.742 293.871 393.77 357.422 395.481 357.442C397.192 357.462 409.421 352.867 408.855 350.663C408.289 348.46 386.079 293.288 387.586 291.166C389.094 289.044 389.668 288.122 388.181 287.983C386.694 287.844 386.255 288.66 386.175 286.602C386.094 284.543 385.838 279.467 385.838 279.467C385.838 279.467 384.761 259.392 377.219 248.301L376.576 241.711L356.013 238.018Z" fill="#2F2E41"/>
<path d="M374.74 196.404L364.799 197.82L364.2 205.022L359.294 212.7C359.294 212.7 348.39 220.377 355.995 232.505L355.502 239.231L380.096 249.134L382.462 205.991L374.74 196.404Z" fill="#009C93"/>
<path d="M358.074 275.016C357.761 274.372 357.712 273.632 357.936 272.952C358.161 272.272 358.642 271.707 359.277 271.377C359.407 271.312 359.542 271.257 359.681 271.215L360.107 261.636L365.042 260.142L363.039 273.201C363.172 273.791 363.106 274.409 362.851 274.958C362.595 275.507 362.166 275.955 361.629 276.234C361.322 276.39 360.987 276.484 360.644 276.51C360.3 276.536 359.955 276.495 359.628 276.388C359.301 276.281 358.998 276.11 358.737 275.886C358.476 275.662 358.261 275.388 358.105 275.081C358.094 275.059 358.084 275.038 358.074 275.016Z" fill="#FFB6B6"/>
<path d="M364.961 267.493L359.398 266.389L359.751 235.713C359.751 235.628 359.727 226.977 357.691 225.02C356.932 224.291 356.686 223.917 356.783 223.64C356.882 223.354 357.289 223.315 357.853 223.261C358.413 223.23 358.965 223.12 359.494 222.933C360.848 222.392 360.614 221.413 360.289 220.058C360.226 219.795 360.161 219.522 360.104 219.239C359.938 218.406 361.272 215.469 364.069 210.512C364.904 209.028 366.188 207.847 367.736 207.139C369.284 206.431 371.017 206.232 372.685 206.572C373.739 206.785 374.741 207.206 375.63 207.812C376.519 208.418 377.278 209.196 377.862 210.1C378.446 211.004 378.844 212.016 379.031 213.076C379.218 214.136 379.191 215.223 378.952 216.273L375.15 232.969L364.961 267.493Z" fill="#009C93"/>
<path d="M368.772 196.142C374.907 196.142 379.881 191.166 379.881 185.028C379.881 178.89 374.907 173.914 368.772 173.914C362.637 173.914 357.664 178.89 357.664 185.028C357.664 191.166 362.637 196.142 368.772 196.142Z" fill="#FFB6B6"/>
<path d="M383.493 200.439C384.984 202.574 385.981 205.014 386.413 207.582C385.211 208.351 383.813 208.755 382.386 208.745C382.338 208.558 382.29 208.371 382.234 208.184C381.821 206.737 381.206 205.355 380.408 204.08C380.517 205.455 380.331 206.838 379.861 208.136C379.108 207.793 378.3 207.584 377.475 207.52C376.802 207.52 376.139 207.676 375.538 207.976C374.839 205.658 374.196 203.526 373.739 201.996C373.725 205.831 368.108 209.174 361.978 208.689C361.757 208.551 363.978 202.246 363.763 202.1C363.272 201.775 362.795 201.422 362.317 201.076C364.324 197.975 366.503 194.653 366.129 194.154C366.157 194.77 363.957 197.733 361.563 200.529C360.235 199.553 367.783 183.675 364.054 182.388C363.992 182.949 363.168 182.949 362.165 182.831C361.901 181.906 361.507 181.023 360.996 180.208C361.063 181.029 360.964 181.855 360.706 182.637C359.715 182.638 358.727 182.742 357.759 182.949C357.534 182.596 357.287 182.258 357.018 181.938C357.045 182.328 357.033 182.72 356.984 183.108C356.302 183.185 355.645 183.412 355.06 183.772C354.286 183.489 355.607 182.208 355.123 181.544C353.891 179.883 355.718 177.46 356.873 175.744C358.119 174.019 359.946 172.803 362.017 172.321C364.088 171.839 366.264 172.123 368.142 173.12C368.308 172.546 369.159 172.165 370.252 171.909C370.716 171.807 371.19 171.763 371.664 171.778C376.368 171.861 382.898 175.744 383.154 180.443C383.175 180.914 383.21 181.426 383.244 181.973C383.576 187.233 383.168 192.085 386.759 195.933C388.059 197.324 388.073 203.914 387.575 207.305C386.281 205.942 385.361 200.64 383.493 200.439Z" fill="#2F2E41"/>
<path d="M319.835 375.999C319.835 376.107 319.856 376.215 319.897 376.315C319.939 376.415 319.999 376.506 320.076 376.582C320.152 376.659 320.243 376.719 320.343 376.761C320.443 376.802 320.55 376.823 320.659 376.823H435.006C435.224 376.823 435.433 376.736 435.588 376.581C435.742 376.427 435.829 376.218 435.829 375.999C435.829 375.781 435.742 375.571 435.588 375.417C435.433 375.262 435.224 375.175 435.006 375.175H320.659C320.55 375.175 320.443 375.196 320.343 375.237C320.243 375.279 320.152 375.339 320.076 375.416C319.999 375.492 319.939 375.583 319.897 375.683C319.856 375.784 319.835 375.891 319.835 375.999Z" fill="#CCCCCC"/>
<path d="M264.797 206.367H123.389C122.581 206.367 121.805 206.045 121.233 205.473C120.661 204.901 120.34 204.125 120.34 203.316C120.34 202.507 120.661 201.731 121.233 201.158C121.805 200.586 122.581 200.265 123.389 200.265H264.797C265.606 200.265 266.381 200.586 266.953 201.158C267.525 201.731 267.847 202.507 267.847 203.316C267.847 204.125 267.525 204.901 266.953 205.473C266.381 206.045 265.606 206.367 264.797 206.367Z" fill="#3F3D56"/>
<path d="M264.797 271.428H123.389C122.581 271.428 121.805 271.106 121.233 270.534C120.661 269.962 120.34 269.186 120.34 268.377C120.34 267.568 120.661 266.792 121.233 266.22C121.805 265.647 122.581 265.326 123.389 265.326H264.797C265.606 265.326 266.381 265.647 266.953 266.22C267.525 266.792 267.847 267.568 267.847 268.377C267.847 269.186 267.525 269.962 266.953 270.534C266.381 271.106 265.606 271.428 264.797 271.428Z" fill="#009C93"/>
<path d="M336.38 238.919H123.389C122.581 238.919 121.805 238.597 121.233 238.025C120.661 237.453 120.34 236.677 120.34 235.868C120.34 235.059 120.661 234.283 121.233 233.71C121.805 233.138 122.581 232.817 123.389 232.817H336.38C337.189 232.817 337.965 233.138 338.536 233.71C339.108 234.283 339.43 235.059 339.43 235.868C339.43 236.677 339.108 237.453 338.536 238.025C337.965 238.597 337.189 238.919 336.38 238.919Z" fill="#009C93"/>
<path d="M267.846 280.595C267.663 280.595 267.487 280.523 267.357 280.393C267.227 280.263 267.154 280.087 267.154 279.903V256.851C267.154 256.667 267.227 256.491 267.357 256.361C267.487 256.231 267.663 256.158 267.846 256.158C268.03 256.158 268.206 256.231 268.335 256.361C268.465 256.491 268.538 256.667 268.538 256.851V279.903C268.538 280.087 268.465 280.263 268.335 280.393C268.206 280.523 268.03 280.595 267.846 280.595Z" fill="#3F3D56"/>
<path d="M108.26 191.56C108.26 191.377 108.333 191.201 108.463 191.071C108.593 190.941 108.769 190.868 108.952 190.868H131.994C132.177 190.868 132.353 190.941 132.483 191.071C132.613 191.201 132.685 191.377 132.685 191.56C132.685 191.744 132.613 191.92 132.483 192.05C132.353 192.18 132.177 192.252 131.994 192.252H108.952C108.769 192.252 108.593 192.18 108.463 192.05C108.333 191.92 108.26 191.744 108.26 191.56Z" fill="#3F3D56"/>
<path d="M120.473 215.534C120.289 215.534 120.114 215.461 119.984 215.332C119.854 215.202 119.781 215.026 119.781 214.842V191.789C119.781 191.606 119.854 191.43 119.984 191.3C120.113 191.17 120.289 191.097 120.473 191.097C120.656 191.097 120.832 191.17 120.962 191.3C121.092 191.43 121.165 191.606 121.165 191.789V214.842C121.165 215.026 121.092 215.202 120.962 215.332C120.832 215.461 120.656 215.534 120.473 215.534Z" fill="#3F3D56"/>
</g>
<defs>
<clipPath id="clip0_1_68">
<rect width="393.446" height="263.829" fill="white" transform="translate(93.7651 121.585)"/>
</clipPath>
</defs>
</svg>
