<svg width="304" height="56" viewBox="0 0 304 56" fill="none" xmlns="http://www.w3.org/2000/svg">
<path d="M10.3812 5.51955L11.0939 7.60309C9.644 8.05391 8.64487 8.86418 8.09657 10.0339C7.54826 11.1914 7.27411 12.5195 7.27411 14.0182V17.8015C7.27411 19.0199 7.02433 20.1287 6.52477 21.1278C6.04497 22.0994 5.28174 22.8762 4.23513 23.4581C5.28174 24.0402 6.04497 24.8231 6.52477 25.8067C7.02433 26.7936 7.27411 27.9024 7.27411 29.133V32.898C7.27411 33.8971 7.38987 34.8231 7.62138 35.676C7.86507 36.529 8.26105 37.2661 8.80935 37.8875C9.36984 38.5212 10.1314 38.9901 11.0939 39.2948L10.3812 41.3966C8.72406 40.9215 7.42032 40.2634 6.46993 39.4228C5.53174 38.5821 4.8616 37.6011 4.4595 36.4802C4.06961 35.3714 3.87466 34.1773 3.87466 32.898V29.133C3.87466 28.2435 3.74062 27.4759 3.47256 26.8301C3.2045 26.1843 2.78415 25.6848 2.21147 25.3316C1.65099 24.966 0.913834 24.7832 0 24.7832V22.133C1.37684 22.133 2.36379 21.7432 2.96082 20.9633C3.57005 20.1835 3.87466 19.1296 3.87466 17.8015V14.0182C3.87466 12.7388 4.06961 11.5448 4.4595 10.436C4.8616 9.315 5.53174 8.33416 6.46993 7.49342C7.42032 6.64053 8.72406 5.98255 10.3812 5.51955Z" fill="#009C93"/>
<path d="M55.7263 7.60309L56.4391 5.51955C58.1084 5.98255 59.412 6.64053 60.3504 7.49342C61.3006 8.33416 61.9708 9.315 62.3608 10.436C62.7507 11.5448 62.9456 12.7388 62.9456 14.0182V17.8015C62.9456 18.6788 63.0796 19.4464 63.3477 20.1043C63.6158 20.7501 64.03 21.2496 64.5904 21.6031C65.1632 21.9564 65.9064 22.133 66.8201 22.133V24.7832C65.4555 24.7832 64.4686 25.1791 63.8593 25.9712C63.2503 26.7509 62.9456 27.805 62.9456 29.133V32.898C62.9456 34.1773 62.7507 35.3714 62.3608 36.4802C61.9708 37.6011 61.3006 38.5821 60.3504 39.4228C59.412 40.2634 58.1084 40.9215 56.4391 41.3966L55.7263 39.2948C56.6888 38.9901 57.4443 38.5212 57.9927 37.8875C58.5531 37.2661 58.949 36.529 59.1806 35.676C59.4244 34.8231 59.5462 33.8971 59.5462 32.898V29.133C59.5462 27.9024 59.7897 26.8057 60.2771 25.8432C60.7767 24.8807 61.5625 24.1251 62.6348 23.577C62.7017 23.5419 62.7698 23.508 62.8393 23.4753C62.7698 23.4432 62.7017 23.4101 62.6348 23.3759C61.5625 22.8153 60.7767 22.0538 60.2771 21.0913C59.7897 20.1165 59.5462 19.0199 59.5462 17.8015V14.0182C59.5462 13.0191 59.4303 12.0931 59.1989 11.2401C58.9673 10.3751 58.5714 9.6318 58.0109 9.01039C57.4626 8.37681 56.7011 7.90769 55.7263 7.60309Z" fill="#009C93"/>
<path d="M29.8037 8.84456C27.6328 8.44528 25.8736 8.24567 24.5259 8.24567C22.0056 8.24567 20.1591 8.80711 18.9863 9.93004C17.8384 11.028 17.2645 12.6625 17.2645 14.8334V15.2452C17.2645 17.0918 17.6013 18.4767 18.2751 19.4C18.9488 20.2983 20.1466 21.0344 21.8685 21.6084L25.7237 22.8811C26.697 23.2055 27.3706 23.6046 27.7451 24.0788C28.1442 24.5281 28.344 25.1893 28.344 26.0627V27.2978C28.344 28.4955 27.9572 29.3814 27.1836 29.9555C26.41 30.5045 25.0875 30.7789 23.2159 30.7789C21.7437 30.7789 19.972 30.5293 17.9008 30.0302L17.8259 32.9125C20.0468 33.4116 21.8685 33.661 23.2908 33.661C26.2105 33.661 28.3064 33.112 29.5791 32.014C30.8768 30.9161 31.5256 29.2566 31.5256 27.0358V26.3247C31.5256 24.503 31.1762 23.118 30.4775 22.1699C29.8037 21.2216 28.6308 20.4605 26.959 19.8866L23.4779 18.7262C22.6296 18.4517 21.9931 18.1897 21.569 17.9402C21.1448 17.6657 20.8453 17.3538 20.6706 17.0044C20.5209 16.6301 20.4461 16.131 20.4461 15.5072V14.534C20.4461 13.3612 20.758 12.4878 21.3819 11.9139C22.0307 11.3399 23.0788 11.053 24.5259 11.053C25.9483 11.053 27.6827 11.2526 29.7288 11.6518L29.8037 8.84456Z" fill="#009C93"/>
<path d="M46.3876 8.5451C45.2646 8.34546 44.2165 8.24567 43.2434 8.24567C40.3736 8.24567 38.3273 8.85702 37.1048 10.0798C35.882 11.3025 35.2706 13.2115 35.2706 15.8066V26.1001C35.2706 28.6953 35.882 30.6042 37.1048 31.827C38.3273 33.0496 40.3736 33.661 43.2434 33.661C44.2165 33.661 45.2646 33.5612 46.3876 33.3617C47.5354 33.187 48.209 33.0872 48.4088 33.0621L48.3339 30.1801C46.1379 30.5792 44.4411 30.7789 43.2434 30.7789C41.5215 30.7789 40.2864 30.442 39.5376 29.7682C38.8141 29.0696 38.4522 27.9092 38.4522 26.2873V15.5821C38.4522 13.9601 38.8264 12.7997 39.5752 12.101C40.3237 11.4023 41.5465 11.053 43.2434 11.053C44.4411 11.053 46.1379 11.2526 48.3339 11.6518L48.4088 8.84456C48.209 8.81959 47.5354 8.71977 46.3876 8.5451Z" fill="#009C93"/>
<path d="M90.9147 6.94162C92.3619 6.94162 94.2513 7.15602 96.5829 7.5848L96.5024 10.5997C94.305 10.1709 92.4423 9.95653 90.9147 9.95653C89.3605 9.95653 88.235 10.2647 87.538 10.8811C86.868 11.4975 86.533 12.4354 86.533 13.695V14.7402C86.533 15.4101 86.6135 15.9461 86.7744 16.3481C86.9619 16.7233 87.2835 17.0583 87.739 17.3531C88.1946 17.6211 88.878 17.9025 89.7891 18.1973L93.5278 19.4434C95.3233 20.0598 96.5829 20.8772 97.3063 21.8956C98.0568 22.914 98.4319 24.4013 98.4319 26.3576V27.1214C98.4319 29.5065 97.7352 31.2886 96.3417 32.4679C94.9748 33.647 92.7236 34.2365 89.5883 34.2365C88.0607 34.2365 86.1044 33.9686 83.7191 33.4326L83.7996 30.3374C86.024 30.8732 87.9267 31.1413 89.5079 31.1413C91.5178 31.1413 92.938 30.8464 93.7689 30.2569C94.5996 29.6404 95.0151 28.6892 95.0151 27.4029V26.0763C95.0151 25.1382 94.8007 24.4281 94.3719 23.9457C93.97 23.4364 93.2463 23.0076 92.2012 22.6593L88.0607 21.2925C86.2116 20.6762 84.9251 19.8856 84.2017 18.9209C83.478 17.9293 83.1162 16.4419 83.1162 14.4588V14.0166C83.1162 11.6851 83.7327 9.92972 84.9655 8.75057C86.225 7.54459 88.208 6.94162 90.9147 6.94162ZM106.067 16.7501C107.541 14.6866 109.256 13.6548 111.213 13.6548C112.928 13.6548 114.241 14.2444 115.152 15.4236C116.09 16.5759 116.559 18.2241 116.559 20.368V33.7542H113.142V20.8504C113.142 18.1705 112.271 16.8305 110.529 16.8305C109.752 16.8305 108.962 17.1253 108.158 17.7149C107.354 18.3045 106.657 19.1084 106.067 20.1268V33.7542H102.65V6.29845H106.067V16.7501ZM130.566 13.6548C130.941 13.6548 131.236 13.6816 131.451 13.7352V17.5943C131.048 17.5139 130.526 17.4737 129.883 17.4737C128.007 17.4737 126.519 18.4117 125.421 20.2876V33.7542H122.004V14.1372H125.22V17.0717C125.943 15.9729 126.747 15.1288 127.632 14.5392C128.543 13.9496 129.521 13.6548 130.566 13.6548ZM141.233 13.6548C143.484 13.6548 145.2 14.2712 146.379 15.504C147.558 16.7367 148.147 18.5189 148.147 20.8504V24.9908H137.816V27.3625C137.816 28.7293 138.138 29.7209 138.781 30.3374C139.451 30.9269 140.496 31.2216 141.917 31.2216C143.31 31.2216 145.052 31.0074 147.142 30.5785L147.223 33.5532C144.731 34.0087 142.948 34.2365 141.877 34.2365C139.223 34.2365 137.307 33.6604 136.128 32.508C134.976 31.3557 134.399 29.5736 134.399 27.1615V20.8504C134.399 18.5189 134.962 16.7367 136.088 15.504C137.24 14.2712 138.955 13.6548 141.233 13.6548ZM141.233 16.5089C140.188 16.5089 139.357 16.8439 138.741 17.5139C138.125 18.1571 137.816 19.095 137.816 20.3278V22.2574H144.731V20.4484C144.731 19.162 144.409 18.1839 143.766 17.5139C143.149 16.8439 142.305 16.5089 141.233 16.5089ZM167.288 14.1372L158.284 41.1909H154.867L157.439 33.7542H156.153L150.565 14.1372H154.304L158.525 31.302L163.751 14.1372H167.288ZM176.279 13.6548C178.584 13.6548 180.259 14.1774 181.304 15.2226C182.376 16.2409 182.912 17.8757 182.912 20.1268V33.7542H179.656V30.6187C178.101 33.0307 176.346 34.2365 174.39 34.2365C172.835 34.2365 171.589 33.7007 170.651 32.6286C169.74 31.5566 169.284 30.096 169.284 28.247V27.1214C169.284 25.5135 169.834 24.1869 170.933 23.1418C172.031 22.0697 173.505 21.5337 175.355 21.5337C176.373 21.5337 177.753 21.708 179.495 22.0563V19.8454C179.495 18.6931 179.227 17.8623 178.691 17.3531C178.182 16.8439 177.378 16.5893 176.279 16.5893C174.993 16.5893 173.184 16.7903 170.852 17.1923V14.2578C173.371 13.8558 175.18 13.6548 176.279 13.6548ZM176.199 24.1869C175.073 24.1869 174.216 24.4818 173.626 25.0713C173.036 25.6608 172.742 26.4915 172.742 27.5636V28.0058C172.742 28.9974 172.969 29.7746 173.425 30.3374C173.881 30.9002 174.457 31.1814 175.153 31.1814C175.877 31.1814 176.614 30.8732 177.364 30.2569C178.142 29.6137 178.852 28.7159 179.495 27.5636V24.4682C178.477 24.2807 177.378 24.1869 176.199 24.1869ZM193.975 13.6548C195.101 13.6548 196.454 13.8156 198.035 14.1372L197.955 17.0315C196.561 16.7099 195.288 16.5491 194.136 16.5491C191.724 16.5491 190.518 17.3263 190.518 18.8807V19.2424C190.518 19.7248 190.639 20.1134 190.88 20.4082C191.148 20.703 191.617 21.0112 192.287 21.3329L196.066 23.1015C198.343 24.1735 199.483 25.7413 199.483 27.8048V28.6892C199.456 30.5382 198.893 31.9319 197.794 32.8698C196.722 33.7809 195.02 34.2365 192.689 34.2365C191.483 34.2365 189.754 33.9552 187.503 33.3925L187.664 30.3374C189.674 30.9269 191.322 31.2216 192.608 31.2216C193.922 31.2216 194.833 31.0475 195.342 30.6991C195.851 30.324 196.106 29.7209 196.106 28.8902V28.4881C196.106 27.8449 195.972 27.3358 195.704 26.9607C195.463 26.5854 195.047 26.2637 194.458 25.9958L190.558 24.2674C189.379 23.7313 188.508 23.0881 187.945 22.3378C187.409 21.5874 187.142 20.7164 187.142 19.7248V19.162C187.195 17.3397 187.758 15.9729 188.83 15.0618C189.929 14.1238 191.644 13.6548 193.975 13.6548ZM219.483 6.94162C220.527 6.94162 221.653 7.04881 222.858 7.2632C224.092 7.4508 224.816 7.55801 225.03 7.5848L224.949 10.5997C222.591 10.1709 220.769 9.95653 219.483 9.95653C217.659 9.95653 216.347 10.3317 215.543 11.0821C214.738 11.8325 214.337 13.0786 214.337 14.8206V26.3174C214.337 28.0593 214.725 29.3054 215.502 30.0559C216.307 30.7796 217.634 31.1413 219.483 31.1413C220.769 31.1413 222.591 30.9269 224.949 30.4981L225.03 33.5935C224.816 33.6202 224.092 33.7274 222.858 33.9149C221.653 34.1293 220.527 34.2365 219.483 34.2365C216.4 34.2365 214.203 33.5799 212.889 32.2669C211.577 30.9537 210.92 28.9036 210.92 26.1164V15.0618C210.92 12.2747 211.577 10.2245 212.889 8.91136C214.203 7.5982 216.4 6.94162 219.483 6.94162ZM236.318 13.6548C238.704 13.6548 240.472 14.298 241.625 15.5844C242.803 16.8439 243.393 18.6395 243.393 20.971V26.9203C243.393 29.2519 242.803 31.0609 241.625 32.3471C240.472 33.6069 238.704 34.2365 236.318 34.2365C233.934 34.2365 232.15 33.6069 230.972 32.3471C229.819 31.0609 229.244 29.2519 229.244 26.9203V20.971C229.244 18.6395 229.819 16.8439 230.972 15.5844C232.15 14.298 233.934 13.6548 236.318 13.6548ZM236.318 16.5089C235.167 16.5089 234.269 16.8707 233.626 17.5943C232.982 18.3179 232.66 19.3496 232.66 20.6896V27.2018C232.66 28.5418 232.982 29.5736 233.626 30.297C234.269 31.0207 235.167 31.3825 236.318 31.3825C237.47 31.3825 238.368 31.0207 239.012 30.297C239.655 29.5736 239.977 28.5418 239.977 27.2018V20.6494C239.977 19.3094 239.655 18.2911 239.012 17.5943C238.368 16.8707 237.47 16.5089 236.318 16.5089ZM262.113 33.7542H258.856V30.5785C257.249 33.0171 255.413 34.2365 253.35 34.2365C251.687 34.2365 250.416 33.6737 249.531 32.5482C248.647 31.3959 248.204 29.7209 248.204 27.5235V20.368C248.204 18.2509 248.688 16.6027 249.652 15.4236C250.643 14.2444 252.05 13.6548 253.872 13.6548C254.649 13.6548 255.466 13.8558 256.324 14.2578C257.181 14.633 257.973 15.102 258.697 15.6647V6.29845H262.113V33.7542ZM254.636 16.7099C253.672 16.7099 252.921 17.0583 252.386 17.7551C251.876 18.4251 251.622 19.4568 251.622 20.8504V27.0813C251.622 29.8147 252.464 31.1814 254.154 31.1814C254.959 31.1814 255.748 30.8732 256.525 30.2569C257.33 29.6137 258.054 28.7159 258.697 27.5636V18.7199C258.133 18.1303 257.464 17.6479 256.687 17.2727C255.935 16.8975 255.252 16.7099 254.636 16.7099ZM274.156 13.6548C276.406 13.6548 278.122 14.2712 279.302 15.504C280.48 16.7367 281.07 18.5189 281.07 20.8504V24.9908H270.738V27.3625C270.738 28.7293 271.061 29.7209 271.704 30.3374C272.373 30.9269 273.42 31.2216 274.84 31.2216C276.232 31.2216 277.975 31.0074 280.066 30.5785L280.145 33.5532C277.653 34.0087 275.872 34.2365 274.799 34.2365C272.146 34.2365 270.231 33.6604 269.051 32.508C267.898 31.3557 267.323 29.5736 267.323 27.1615V20.8504C267.323 18.5189 267.885 16.7367 269.01 15.504C270.163 14.2712 271.878 13.6548 274.156 13.6548ZM274.156 16.5089C273.112 16.5089 272.28 16.8439 271.664 17.5139C271.048 18.1571 270.738 19.095 270.738 20.3278V22.2574H277.653V20.4484C277.653 19.162 277.332 18.1839 276.689 17.5139C276.073 16.8439 275.228 16.5089 274.156 16.5089ZM291.333 13.6548C292.458 13.6548 293.81 13.8156 295.392 14.1372L295.311 17.0315C293.918 16.7099 292.645 16.5491 291.492 16.5491C289.08 16.5491 287.874 17.3263 287.874 18.8807V19.2424C287.874 19.7248 287.995 20.1134 288.235 20.4082C288.505 20.703 288.974 21.0112 289.643 21.3329L293.422 23.1015C295.699 24.1735 296.839 25.7413 296.839 27.8048V28.6892C296.812 30.5382 296.249 31.9319 295.15 32.8698C294.078 33.7809 292.377 34.2365 290.046 34.2365C288.84 34.2365 287.11 33.9552 284.86 33.3925L285.021 30.3374C287.029 30.9269 288.679 31.2216 289.965 31.2216C291.277 31.2216 292.188 31.0475 292.698 30.6991C293.207 30.324 293.462 29.7209 293.462 28.8902V28.4881C293.462 27.8449 293.328 27.3358 293.061 26.9607C292.819 26.5854 292.403 26.2637 291.815 25.9958L287.915 24.2674C286.737 23.7313 285.864 23.0881 285.301 22.3378C284.766 21.5874 284.497 20.7164 284.497 19.7248V19.162C284.552 17.3397 285.115 15.9729 286.187 15.0618C287.284 14.1238 289 13.6548 291.333 13.6548Z" fill="url(#paint0_linear_1_17)"/>
<path d="M275.657 50.0127C276.275 50.0127 276.583 50.2672 276.583 50.7759V51.2467C276.583 51.4849 276.502 51.669 276.339 51.7989C276.188 51.9288 275.961 51.9938 275.657 51.9938C275.364 51.9938 275.137 51.9288 274.976 51.7989C274.823 51.669 274.748 51.4849 274.748 51.2467V50.7759C274.748 50.5268 274.823 50.3375 274.976 50.2076C275.137 50.0776 275.364 50.0127 275.657 50.0127ZM279.818 43.8747H281.93V45.0115H279.818V49.6554C279.818 50.0668 279.899 50.3644 280.062 50.5485C280.236 50.7217 280.499 50.8083 280.858 50.8083C281.313 50.8083 281.756 50.7542 282.189 50.6459L282.221 51.7989C281.746 51.9288 281.313 51.9938 280.922 51.9938C280.056 51.9938 279.423 51.8042 279.022 51.4255C278.633 51.0357 278.438 50.4077 278.438 49.5418V45.0115H277.302V43.8747H278.438L278.697 41.7639H279.818V43.8747ZM286.28 43.6798C287.189 43.6798 287.881 43.9289 288.358 44.4269C288.834 44.9249 289.072 45.6448 289.072 46.5865V48.2589H284.898V49.217C284.898 49.7692 285.03 50.1698 285.289 50.4186C285.56 50.6568 285.981 50.7759 286.556 50.7759C287.119 50.7759 287.821 50.6892 288.666 50.516L288.698 51.7178C287.692 51.9016 286.972 51.9938 286.539 51.9938C285.467 51.9938 284.694 51.7611 284.217 51.2955C283.752 50.83 283.518 50.1101 283.518 49.1359V46.5865C283.518 45.6448 283.745 44.9249 284.202 44.4269C284.667 43.9289 285.359 43.6798 286.28 43.6798ZM286.28 44.8328C285.858 44.8328 285.522 44.9682 285.272 45.2387C285.023 45.4985 284.898 45.8775 284.898 46.3755V47.1548H287.692V46.4241C287.692 45.9044 287.562 45.5094 287.301 45.2387C287.053 44.9682 286.713 44.8328 286.28 44.8328ZM293.721 43.6798C294.207 43.6798 294.759 43.7503 295.377 43.8911L295.345 45.1088C294.717 44.9682 294.175 44.8977 293.721 44.8977C293.211 44.8977 292.823 45.0385 292.551 45.32C292.292 45.6015 292.163 46.0019 292.163 46.5216V49.1359C292.163 49.677 292.296 50.0885 292.568 50.37C292.848 50.6406 293.233 50.7759 293.721 50.7759C294.024 50.7759 294.29 50.7597 294.517 50.7272C294.744 50.6948 295.02 50.6406 295.345 50.5648L295.377 51.7827C294.717 51.9233 294.158 51.9938 293.704 51.9938C291.755 51.9938 290.781 51.0087 290.781 49.0385V46.6351C290.781 44.6651 291.761 43.6798 293.721 43.6798ZM298.65 44.9302C299.247 44.0968 299.939 43.6798 300.729 43.6798C301.423 43.6798 301.954 43.918 302.321 44.3944C302.701 44.86 302.89 45.5257 302.89 46.3916V51.7989H301.51V46.5865C301.51 45.504 301.157 44.9627 300.453 44.9627C300.141 44.9627 299.82 45.0818 299.495 45.32C299.17 45.5582 298.89 45.8828 298.65 46.2942V51.7989H297.27V40.7084H298.65V44.9302Z" fill="white"/>
<defs>
<linearGradient id="paint0_linear_1_17" x1="84.8198" y1="23.5417" x2="258.237" y2="23.5417" gradientUnits="userSpaceOnUse">
<stop stop-color="#009C93"/>
<stop offset="1" stop-color="#00A6B0"/>
</linearGradient>
</defs>
</svg>
