<svg width="442" height="292" viewBox="0 0 442 292" fill="none" xmlns="http://www.w3.org/2000/svg">
<path d="M77.2366 36.8309L82.0028 50.7628C72.3075 53.7773 65.6267 59.1953 61.9604 67.0167C58.2941 74.7567 56.4609 83.6373 56.4609 93.6585V118.956C56.4609 127.103 54.7907 134.517 51.4503 141.198C48.1914 147.797 42.9771 153.052 35.8075 156.963C28.7193 160.874 19.3906 162.829 7.82143 162.829V147.92C17.0279 147.92 23.6272 145.312 27.6194 140.098C31.6931 134.884 33.7299 127.836 33.7299 118.956V93.6585C33.7299 85.1038 35.0335 77.1194 37.6406 69.7054C40.3292 62.2098 44.8103 55.6512 51.0837 50.0296C57.4386 44.3264 66.1563 39.9269 77.2366 36.8309ZM82.0028 262.675L77.2366 276.729C66.1563 273.551 57.4386 269.152 51.0837 263.53C44.8103 257.908 40.3292 251.35 37.6406 243.854C35.0335 236.44 33.7299 228.456 33.7299 219.901V194.726C33.7299 188.778 32.8337 183.646 31.0413 179.328C29.2489 175.009 26.4381 171.669 22.6088 169.306C18.861 166.862 13.9319 165.64 7.82143 165.64V150.73C19.3906 150.73 28.7193 152.686 35.8075 156.597C42.9771 160.507 48.1914 165.803 51.4503 172.484C54.7907 179.083 56.4609 186.497 56.4609 194.726V219.901C56.4609 226.582 57.2349 232.774 58.7829 238.477C60.4124 244.18 63.0603 249.109 66.7266 253.265C70.4743 257.501 75.5664 260.638 82.0028 262.675Z" fill="#00A6B0"/>
<path d="M367.444 50.7628L372.21 36.8309C383.372 39.9269 392.09 44.3264 398.363 50.0296C404.718 55.6512 409.199 62.2098 411.806 69.7054C414.414 77.1194 415.717 85.1038 415.717 93.6585V118.956C415.717 124.822 416.613 129.955 418.406 134.354C420.198 138.672 422.968 142.013 426.716 144.376C430.545 146.738 435.515 147.92 441.626 147.92V161.729C430.138 161.729 420.809 159.896 413.64 156.23C406.47 152.482 401.215 147.39 397.874 140.954C394.616 134.436 392.986 127.103 392.986 118.956V93.6585C392.986 86.9777 392.212 80.7857 390.664 75.0826C389.116 69.298 386.468 64.3281 382.72 60.173C379.054 55.9364 373.962 52.7997 367.444 50.7628ZM372.21 276.729L367.444 262.675C373.881 260.638 378.932 257.501 382.598 253.265C386.346 249.109 388.994 244.18 390.542 238.477C392.171 232.774 392.986 226.582 392.986 219.901V194.726C392.986 186.497 394.616 179.165 397.874 172.728C401.215 166.292 406.47 161.241 413.64 157.574C420.809 153.826 430.138 151.953 441.626 151.953V165.64C432.501 165.64 425.901 168.288 421.828 173.584C417.754 178.798 415.717 185.845 415.717 194.726V219.901C415.717 228.456 414.414 236.44 411.806 243.854C409.199 251.35 404.718 257.908 398.363 263.53C392.09 269.152 383.372 273.551 372.21 276.729Z" fill="#00A6B0"/>
<path d="M171.818 55.0594C180.829 55.0594 192.592 56.3943 207.109 59.064L206.608 77.8354C192.926 75.1657 181.329 73.8309 171.818 73.8309C162.141 73.8309 155.133 75.7497 150.794 79.5874C146.623 83.4251 144.537 89.2651 144.537 97.1074V103.615C144.537 107.786 145.038 111.123 146.039 113.626C147.207 115.962 149.209 118.048 152.046 119.883C154.882 121.552 159.137 123.304 164.81 125.139L188.087 132.898C199.266 136.736 207.109 141.825 211.614 148.166C216.286 154.506 218.622 163.767 218.622 175.947V180.703C218.622 195.553 214.283 206.649 205.607 213.991C197.097 221.333 183.081 225.003 163.559 225.003C154.048 225.003 141.867 223.335 127.017 219.998L127.518 200.726C141.367 204.063 153.214 205.731 163.058 205.731C175.573 205.731 184.416 203.896 189.589 200.225C194.761 196.387 197.347 190.464 197.347 182.455V174.195C197.347 168.355 196.013 163.934 193.343 160.93C190.84 157.76 186.335 155.09 179.827 152.921L154.048 144.411C142.535 140.574 134.526 135.651 130.021 129.645C125.515 123.471 123.263 114.21 123.263 101.863V99.1097C123.263 84.5931 127.101 73.664 134.776 66.3223C142.618 58.8137 154.966 55.0594 171.818 55.0594ZM296.975 55.0594C303.482 55.0594 310.49 55.7268 317.999 57.0617C325.674 58.2297 330.179 58.8971 331.514 59.064L331.014 77.8354C316.33 75.1657 304.984 73.8309 296.975 73.8309C285.629 73.8309 277.453 76.1669 272.447 80.8389C267.441 85.5109 264.938 93.2697 264.938 104.115V175.697C264.938 186.543 267.358 194.302 272.197 198.974C277.202 203.479 285.462 205.731 296.975 205.731C304.984 205.731 316.33 204.397 331.014 201.727L331.514 220.999C330.179 221.166 325.674 221.833 317.999 223.001C310.49 224.336 303.482 225.003 296.975 225.003C277.786 225.003 264.104 220.915 255.928 212.739C247.752 204.563 243.664 191.799 243.664 174.446V105.617C243.664 88.264 247.752 75.4994 255.928 67.3234C264.104 59.1474 277.786 55.0594 296.975 55.0594Z" fill="#009C93"/>
</svg>
