<svg width="1441" height="1258" viewBox="0 0 1441 1258" fill="none" xmlns="http://www.w3.org/2000/svg">
<path d="M1400.2 444.461C1502.06 697.378 1409.11 1009.56 1167.19 1156.65C925.269 1303.74 534.378 1286.81 288.639 1131.25C42.8996 975.692 -58.9612 683.621 33.9868 440.228C128.208 195.777 417.238 1.06255 710.088 0.00431618C1002.94 -1.05391 1298.33 192.602 1400.2 444.461Z" fill="#474C58"/>
<g clip-path="url(#clip0_28_120)">
<path opacity="0.1" d="M182.84 612.02C200.21 679.15 236.95 737.18 295.01 765.31C415.71 823.77 687.92 793.62 891.08 759.01C996.17 741.11 1088.54 691.71 1155.64 622.19L182.84 612.02Z" fill="#008574"/>
<path opacity="0.1" d="M1248.2 296.03H1136.73C1131.44 296.03 1127.1 292.11 1127.1 287.32C1127.1 282.53 1131.44 278.6 1136.73 278.6H1156.01C1150.71 278.6 1146.38 274.68 1146.38 269.88C1146.38 265.08 1150.71 261.17 1156.01 261.17H1142.25C1136.95 261.17 1132.61 257.25 1132.61 252.45C1132.61 247.65 1136.95 243.74 1142.25 243.74H1200.43C1187.52 238.31 1172.43 234.45 1155.04 232.42C996.39 213.99 939.75 226.18 919.77 238.71C894.866 254.523 867.202 265.494 838.23 271.05C740.35 289.32 557.3 311.3 391.39 264.05C308.93 240.52 247.64 280.23 210.91 346.61H1267.56C1266.18 327.32 1262.05 309.5 1254.47 293.91C1252.67 295.296 1250.47 296.042 1248.2 296.03V296.03Z" fill="#008574"/>
<path opacity="0.1" d="M173.39 471.9C169.108 510.942 170.564 550.4 177.71 589.02L1156.39 621.41C1183.33 593.469 1206.22 561.888 1224.39 527.59L173.39 471.9ZM560.47 555.45H541.2C546.5 555.45 550.84 559.38 550.84 564.17C550.84 568.96 546.5 572.88 541.2 572.88H429.73C424.44 572.88 420.1 568.96 420.1 564.17C420.1 559.38 424.44 555.45 429.73 555.45H449.01C443.71 555.45 439.38 551.53 439.38 546.74C439.38 541.95 443.71 538.02 449.01 538.02H435.24C429.94 538.02 425.6 534.1 425.6 529.31C425.6 524.52 429.94 520.59 435.24 520.59H546.71C552.01 520.59 556.34 524.51 556.34 529.31C556.34 534.11 552.01 538.02 546.71 538.02H560.47C565.77 538.02 570.1 541.94 570.1 546.74C570.1 551.54 565.77 555.45 560.47 555.45Z" fill="#008574"/>
<path opacity="0.1" d="M1267.6 347.21L199.12 370.71C186.12 400.94 177.5 435.12 173.53 470.54H1248.88C1255.88 449.817 1261.07 428.528 1264.4 406.91C1267.61 386.1 1268.89 365.97 1267.6 347.21ZM390.47 424.26H371.2C376.5 424.26 380.84 428.19 380.84 432.98C380.84 437.77 376.5 441.7 371.2 441.7H259.73C254.44 441.7 250.1 437.77 250.1 432.98C250.1 428.19 254.44 424.26 259.73 424.26H279.01C273.71 424.26 269.38 420.34 269.38 415.55C269.38 410.76 273.71 406.83 279.01 406.83H265.24C259.94 406.83 255.6 402.91 255.6 398.12C255.6 393.33 259.94 389.4 265.24 389.4H376.71C382.01 389.4 386.34 393.32 386.34 398.12C386.34 402.92 382.01 406.83 376.71 406.83H390.47C395.77 406.83 400.1 410.76 400.1 415.55C400.1 420.34 395.77 424.26 390.47 424.26Z" fill="#008574"/>
<path opacity="0.1" d="M716.08 1004.08C962.94 1004.08 1163.06 985.67 1163.06 962.96C1163.06 940.25 962.94 921.84 716.08 921.84C469.22 921.84 269.1 940.25 269.1 962.96C269.1 985.67 469.22 1004.08 716.08 1004.08Z" fill="#008574"/>
<path d="M1171.64 623.32C1171.64 623.25 1171.64 623.18 1171.64 623.11C1171.64 623 1171.64 622.9 1171.64 622.8C1171.44 621.655 1171.01 620.562 1170.37 619.59C1168.08 615.927 1164.89 612.911 1161.11 610.83C1154.51 607.21 1145.44 605.66 1142.8 598.75C1141.99 596.61 1141.97 594.28 1141.57 592.04C1140.87 588.55 1139.26 585.305 1136.91 582.632C1134.56 579.959 1131.55 577.951 1128.18 576.81C1125.04 575.76 1121.65 575.47 1118.6 574.17C1111.78 571.27 1108.18 564.12 1105.13 557.51C1101.18 548.977 1097.24 540.44 1093.29 531.9C1090.29 533.41 1086.41 532.7 1083.6 530.81C1080.89 528.794 1078.74 526.129 1077.33 523.06C1073.26 515.16 1071.51 506.21 1066.73 498.69C1061.95 491.17 1052.4 485.23 1043.96 488.5C1042.31 489.323 1040.61 490.028 1038.86 490.61C1031.63 492.3 1023.63 484.04 1017.44 488.05C1016.41 488.709 1015.57 489.626 1015.01 490.71C1015 490.643 1015 490.576 1015.01 490.51C1014.2 492.136 1013.75 493.916 1013.69 495.73V495.73C1013.69 496.1 1013.69 496.46 1013.69 496.81C1013.69 496.87 1013.69 496.93 1013.69 496.99C1013.69 498.43 1013.78 499.89 1013.8 501.35C1013.82 502.576 1013.73 503.801 1013.52 505.01V504.91C1013.4 505.59 1013.23 506.259 1013 506.91C1011.39 511.23 1006.93 514.06 1004.84 518.12V517.92C1004.6 518.361 1004.4 518.819 1004.23 519.29C1003.86 520.354 1003.67 521.473 1003.66 522.6C1003.48 530.23 1011.57 537.41 1012.51 545.6C1013.18 551.4 1014.51 553.26 1019.44 556.54L1020.52 557.26C1020.09 557.26 1019.65 557.32 1019.16 557.33C1018.97 557.333 1018.78 557.353 1018.59 557.39C1017.72 557.15 1016.81 557.107 1015.92 557.262C1015.03 557.418 1014.19 557.769 1013.45 558.29C1009.67 561.29 1000.73 558.98 996.76 558.29C992.79 557.6 979.19 559.46 977.29 567C975.39 574.54 972.13 590.1 972.13 590.1C972.13 590.1 972.13 599.97 970.92 601.81C970.873 601.939 970.873 602.081 970.92 602.21C970.92 604.98 971.02 621.63 968.34 625.92C967.68 626.92 967.73 629.13 968.22 631.85C965.4 635.48 962.75 639.72 963.22 642.5C964.08 648.19 975.62 666.08 992.16 656.5C992.16 656.5 1001.57 639.29 989.73 630.14L990.24 628.14C993.82 632.54 996.47 635.7 996.47 635.7C996.47 635.7 996.61 636.07 996.83 636.7H996.47C998.015 640.905 998.951 645.31 999.25 649.78C999.205 651.419 998.908 653.041 998.37 654.59H998.68C998.59 654.93 998.49 655.27 998.37 655.59C997.789 657.279 996.703 658.748 995.26 659.8C986.99 665.66 977.52 707.51 977.52 707.51C977.52 707.51 958.76 775.16 955.01 779.01C951.91 782.17 971.39 791.07 986.01 790.01C988.051 789.888 990.067 789.505 992.01 788.87C992.1 789.87 992.2 790.87 992.3 791.78C992.61 794.78 992.93 797.56 993.13 798.43C993.65 800.61 994.68 822.87 994.68 822.87C994.68 822.87 992.57 837.33 993.08 847.39C993.08 848.08 993.17 848.74 993.23 849.39L991.41 849.67C988.65 855.87 1000.02 907.6 1001.57 911.95C1002.6 915.377 1003.17 918.924 1003.29 922.5C1003.29 922.5 1002.29 926.18 1003.12 928.19C1003.64 929.418 1003.97 930.715 1004.12 932.04C1004.12 932.04 1003.44 935.38 1004.47 937.56C1005.5 939.74 1004.3 943.56 1004.3 943.56C1004.3 943.56 1003.96 958.63 1000.86 966.83C1000.02 969.036 999.77 971.427 1000.15 973.759C1000.53 976.091 1001.51 978.282 1003.01 980.11C1003.23 980.395 1003.46 980.665 1003.71 980.92C1003.71 980.92 1020.81 981.06 1023.82 980.92H1024.21C1025.42 980.75 1028.52 967.19 1025.76 960.66C1023 954.13 1025.42 946.09 1025.42 946.09V934.21C1025.42 934.21 1028.52 931.35 1025.42 925.21C1022.32 919.07 1022.83 917.21 1022.83 917.21C1022.83 917.21 1026.28 907.33 1022.66 904.15C1019.04 900.97 1023.35 888.91 1023.35 888.91L1024.57 848.71C1023.93 848.502 1023.28 848.335 1022.62 848.21C1022.55 847.55 1022.48 846.87 1022.41 846.15C1021.7 838.87 1021.09 828.97 1022.67 826.15C1024.25 823.33 1025.01 798.71 1025.26 781.6L1041.02 782.2C1041.35 790.2 1041.7 797.5 1041.92 798.43C1042.44 800.61 1043.48 822.87 1043.48 822.87C1043.48 822.87 1041.36 837.33 1041.87 847.39C1041.87 848.08 1041.96 848.74 1042.02 849.39L1040.2 849.67C1037.44 855.87 1048.81 907.6 1050.36 911.95C1051.39 915.378 1051.97 918.923 1052.09 922.5C1052.09 922.5 1051.09 926.18 1051.91 928.19C1052.43 929.418 1052.76 930.715 1052.91 932.04C1052.91 932.04 1052.23 935.38 1053.26 937.56C1054.29 939.74 1053.09 943.56 1053.09 943.56C1053.09 943.56 1052.75 958.63 1049.65 966.83C1048.82 969.04 1048.59 971.43 1048.98 973.758C1049.37 976.087 1050.36 978.271 1051.87 980.09C1052.09 980.375 1052.32 980.645 1052.57 980.9C1052.57 980.9 1069.67 981.04 1072.68 980.9H1073.07C1074.28 980.73 1077.38 967.17 1074.62 960.64C1071.86 954.11 1074.28 946.07 1074.28 946.07V934.21C1074.28 934.21 1077.38 931.35 1074.28 925.21C1071.18 919.07 1071.69 917.21 1071.69 917.21C1071.69 917.21 1075.14 907.33 1071.52 904.15C1067.9 900.97 1072.21 888.91 1072.21 888.91L1073.45 848.71C1072.8 848.499 1072.13 848.332 1071.45 848.21C1071.38 847.55 1071.31 846.87 1071.24 846.15C1070.53 838.87 1069.92 828.97 1071.5 826.15C1072.77 823.84 1073.5 808.96 1073.83 794.43C1073.83 793.43 1073.83 792.43 1073.91 791.43C1081.15 791.128 1088.36 790.32 1095.49 789.01C1095.49 789.01 1087.06 759.2 1089.64 754.35C1090.75 752.26 1089.15 741.13 1086.96 729.14C1090.01 731.612 1093.81 732.986 1097.74 733.04C1101.51 740.29 1112.98 756.97 1119.44 759.54C1127.02 762.54 1121.33 735.94 1117.72 732.09C1116.01 729.988 1114.57 727.68 1113.44 725.22C1113.54 725.1 1113.65 725 1113.75 724.89C1113.85 724.78 1113.93 696.59 1112.2 697.1C1110.47 697.61 1108.41 692.91 1108.41 692.91L1103.07 646.04L1100.83 626.42C1102.7 627.8 1104.92 628.68 1106.83 630.05C1112.03 633.86 1113.73 640.55 1116.01 646.47C1117.89 651.34 1120.53 656.17 1124.86 659.23C1129.19 662.29 1135.54 663.1 1139.86 660C1143.86 657.09 1145.04 651.84 1145.92 647.05C1153.18 649.6 1161.99 642.78 1161.05 635.33C1160.82 633.49 1160.14 631.48 1161.1 629.87C1163.02 626.69 1169.1 628.54 1171.1 625.4C1171.44 624.857 1171.61 624.229 1171.6 623.59C1171.63 623.45 1171.64 623.39 1171.64 623.32ZM1074.53 649.1C1074.42 650.89 1076.88 665.27 1078.88 676.65C1077.24 669.56 1073.95 661.99 1067.47 656.8C1067.47 656.8 1067.47 656.44 1067.39 655.8H1067.47C1067.47 655.8 1067.2 652.94 1067.16 648.87C1067.17 645.262 1067.44 641.66 1067.96 638.09V638H1067.83C1067.83 637.7 1067.91 637.39 1067.96 637.09C1068.36 634.077 1069.18 631.135 1070.39 628.35C1070.93 627.258 1071.55 626.209 1072.24 625.21C1073.31 634.88 1074.63 647.29 1074.53 649.1V649.1ZM1079.91 682.42C1080.79 687.33 1081.42 690.78 1081.42 690.78L1086.73 727.24V727.41C1083.87 712.02 1080.22 695.8 1080.22 695.8C1080.59 691.342 1080.49 686.856 1079.91 682.42V682.42Z" fill="url(#paint0_linear_28_120)"/>
<path d="M1014.83 547.6C1013.83 538.36 1003.83 530.39 1006.83 521.6C1008.46 516.81 1013.56 513.88 1015.28 509.12C1016.42 505.98 1015.91 502.53 1015.92 499.19C1015.93 495.85 1016.71 492.12 1019.49 490.27C1025.49 486.27 1033.21 494.5 1040.21 492.82C1041.9 492.241 1043.55 491.539 1045.14 490.72C1053.31 487.47 1062.55 493.39 1067.14 500.87C1071.73 508.35 1073.45 517.27 1077.39 525.13C1078.74 528.165 1080.82 530.816 1083.45 532.84C1086.17 534.72 1089.89 535.43 1092.83 533.93L1104.28 559.43C1107.28 566 1110.72 573.12 1117.28 576.01C1120.22 577.3 1123.5 577.59 1126.54 578.64C1129.84 579.806 1132.78 581.818 1135.07 584.477C1137.35 587.136 1138.89 590.348 1139.54 593.79C1139.93 596.03 1139.94 598.35 1140.73 600.48C1143.28 607.36 1152.05 608.9 1158.44 612.48C1162.14 614.565 1165.24 617.564 1167.44 621.19C1168.44 622.92 1169.3 625.19 1168.23 626.89C1166.3 630.01 1160.43 628.17 1158.57 631.34C1157.63 632.94 1158.29 634.94 1158.57 636.78C1159.48 644.19 1150.95 650.98 1143.93 648.44C1143.08 653.21 1141.93 658.44 1138.07 661.33C1133.92 664.43 1127.77 663.61 1123.58 660.57C1119.39 657.53 1116.85 652.72 1115.03 647.87C1112.82 641.97 1111.17 635.31 1106.14 631.52C1104.32 630.16 1102.14 629.28 1100.36 627.91C1096.36 624.85 1094.36 619.8 1092.93 614.91C1091.08 608.81 1089.61 602.54 1086.93 596.78C1084.25 591.02 1080.01 585.66 1074.2 583.03C1068.75 580.58 1062.47 580.74 1056.84 578.75C1047.15 575.33 1039.98 567.18 1030.34 563.34C1027.26 562.045 1024.34 560.394 1021.64 558.42C1016.79 555.23 1015.47 553.38 1014.83 547.6Z" fill="#3F3D56"/>
<g opacity="0.1">
<path opacity="0.1" d="M1015.73 507.16C1015.94 506.769 1016.12 506.365 1016.27 505.95C1017.4 502.81 1016.9 499.36 1016.91 496.02C1016.91 494.906 1017.01 493.795 1017.22 492.7C1016.3 494.676 1015.85 496.84 1015.91 499.02C1015.9 501.71 1016.22 504.53 1015.73 507.16Z" fill="black"/>
<path opacity="0.1" d="M1139.01 658.19C1134.86 661.28 1128.71 660.47 1124.52 657.42C1120.33 654.37 1117.78 649.58 1116.01 644.71C1113.8 638.81 1112.16 632.15 1107.12 628.36C1105.31 627 1103.12 626.11 1101.35 624.75C1097.35 621.69 1095.35 616.64 1093.91 611.8C1092.06 605.7 1090.6 599.43 1087.91 593.67C1085.22 587.91 1081 582.55 1075.18 579.92C1069.74 577.47 1063.46 577.63 1057.83 575.64C1048.13 572.22 1040.96 564.07 1031.33 560.23C1028.25 558.931 1025.32 557.28 1022.62 555.31C1017.88 552.04 1016.62 550.19 1015.92 544.42C1014.92 535.76 1006.12 528.21 1007.49 520.05C1007.27 520.492 1007.07 520.946 1006.9 521.41C1003.9 530.21 1013.9 538.18 1014.9 547.41C1015.55 553.18 1016.9 555.03 1021.6 558.3C1024.3 560.27 1027.23 561.921 1030.31 563.22C1039.94 567.06 1047.11 575.22 1056.81 578.63C1062.44 580.63 1068.72 580.46 1074.16 582.91C1079.98 585.54 1084.16 590.91 1086.89 596.66C1089.62 602.41 1091.08 608.66 1092.89 614.79C1094.36 619.63 1096.29 624.68 1100.33 627.74C1102.14 629.1 1104.33 629.99 1106.1 631.35C1111.1 635.14 1112.78 641.8 1114.99 647.7C1116.81 652.55 1119.36 657.35 1123.55 660.39C1127.74 663.43 1133.89 664.25 1138.04 661.16C1140.69 659.16 1142.04 656.11 1142.93 652.84C1142.14 654.949 1140.78 656.8 1139.01 658.19V658.19Z" fill="black"/>
<path opacity="0.1" d="M1159.56 628.2C1159.18 628.918 1159.01 629.73 1159.08 630.54C1161.34 628.31 1166.44 629.62 1168.22 626.75C1168.63 626.041 1168.8 625.213 1168.68 624.4C1166.36 626.6 1161.26 625.29 1159.56 628.2Z" fill="black"/>
<path opacity="0.1" d="M1144.87 645.3C1144.68 646.3 1144.49 647.37 1144.25 648.41C1150.37 650.32 1157.44 645.41 1158.44 639.21C1156.01 643.98 1150.01 647.17 1144.87 645.3Z" fill="black"/>
</g>
<path d="M1027.75 552.41C1027.75 552.41 1031.08 559.13 1021.25 559.27C1011.42 559.41 1027.58 602.91 1027.58 602.91L1043.92 623.71L1064.25 612.71L1065.42 582.37L1066.92 564.04C1066.92 564.04 1047.92 557.87 1051.42 549.71C1054.92 541.55 1027.75 552.41 1027.75 552.41Z" fill="#FBBEBE"/>
<path d="M1086.76 729.77C1086.76 729.77 1098.76 741.58 1112.76 725.91L1102.01 714.5H1088.41L1086.76 729.77Z" fill="#575A89"/>
<path opacity="0.1" d="M1088.06 714.5L1086.41 729.77C1086.41 729.77 1098.41 741.58 1112.41 725.91" fill="black"/>
<path d="M1108.25 716.58C1108.25 716.58 1113.08 729.25 1116.58 733.08C1120.08 736.91 1125.58 763.41 1118.25 760.41C1110.92 757.41 1096.92 735.08 1096.08 731.25C1095.24 727.42 1094.92 716.58 1094.92 716.58H1108.25Z" fill="#FBBEBE"/>
<path d="M1003.42 781.58L1068.08 784.08L1060.58 756.74L1028.01 756.08L1003.42 781.58Z" fill="#575A89"/>
<path opacity="0.1" d="M1012.41 781.58L1077.08 784.08L1069.58 756.74L1037 756.08L1012.41 781.58Z" fill="black"/>
<path d="M1024.58 826.71C1023.05 829.56 1023.64 839.42 1024.33 846.71C1024.77 851.35 1025.25 854.92 1025.25 854.92C1025.25 854.92 1001.08 862.42 997.42 855.92C996.49 854.27 996.03 851.38 995.87 847.99C995.37 837.99 997.42 823.58 997.42 823.58C997.42 823.58 996.42 801.42 995.92 799.25C995.72 798.38 995.41 795.62 995.11 792.63C994.67 788.19 994.25 783.25 994.25 783.25L1027.25 765.75C1027.25 765.75 1027.25 769.03 1027.19 774.08C1027.01 789.94 1026.48 823.21 1024.58 826.71Z" fill="#FBBEBE"/>
<path opacity="0.1" d="M1025.25 854.92C1025.25 854.92 1001.08 862.42 997.42 855.92C996.49 854.27 996.03 851.38 995.87 847.99C1000.87 847.23 1016.09 845.13 1024.33 846.71C1024.77 851.35 1025.25 854.92 1025.25 854.92Z" fill="black"/>
<path d="M1026.08 980.92H1025.7C1022.79 981.03 1006.25 980.92 1006.25 980.92C1006.01 980.667 1005.78 980.4 1005.57 980.12C1004.11 978.29 1003.14 976.114 1002.77 973.802C1002.39 971.49 1002.61 969.12 1003.42 966.92C1006.42 958.75 1006.75 943.75 1006.75 943.75C1006.75 943.75 1007.92 939.92 1006.92 937.75C1005.92 935.58 1006.58 932.25 1006.58 932.25C1006.43 930.933 1006.09 929.644 1005.58 928.42C1004.75 926.42 1005.75 922.75 1005.75 922.75C1005.64 919.194 1005.07 915.666 1004.08 912.25C1002.58 907.92 991.58 856.42 994.25 850.25C994.25 850.25 1017.58 846.25 1026.42 849.25L1025.25 889.25C1025.25 889.25 1021.08 901.25 1024.58 904.42C1028.08 907.59 1024.75 917.42 1024.75 917.42C1024.75 917.42 1024.25 919.25 1027.25 925.42C1030.25 931.59 1027.25 934.42 1027.25 934.42V946.25C1027.25 946.25 1024.92 954.25 1027.58 960.75C1030.24 967.25 1027.25 980.71 1026.08 980.92Z" fill="#3F3D56"/>
<path d="M1071.87 826.71C1070.34 829.56 1070.93 839.42 1071.62 846.71C1072.06 851.35 1072.54 854.92 1072.54 854.92C1072.54 854.92 1048.37 862.42 1044.71 855.92C1043.78 854.27 1043.32 851.38 1043.16 847.99C1042.66 837.99 1044.71 823.58 1044.71 823.58C1044.71 823.58 1043.71 801.42 1043.21 799.25C1042.94 798.08 1042.47 786.92 1042.1 776.91C1041.79 768.37 1041.54 760.65 1041.54 760.65L1074.54 765.75C1074.54 765.75 1074.54 780.26 1074.13 795.17C1073.77 809.63 1073.1 824.45 1071.87 826.71Z" fill="#FBBEBE"/>
<path opacity="0.1" d="M1072.54 854.92C1072.54 854.92 1048.37 862.42 1044.71 855.92C1043.78 854.27 1043.32 851.38 1043.16 847.99C1048.16 847.23 1063.38 845.13 1071.62 846.71C1072.06 851.35 1072.54 854.92 1072.54 854.92Z" fill="black"/>
<path d="M1073.37 980.92H1072.99C1070.08 981.03 1053.54 980.92 1053.54 980.92C1053.3 980.667 1053.07 980.4 1052.86 980.12C1051.4 978.289 1050.43 976.114 1050.06 973.802C1049.68 971.49 1049.9 969.12 1050.71 966.92C1053.71 958.71 1054.01 943.71 1054.01 943.71C1054.01 943.71 1055.18 939.88 1054.18 937.71C1053.18 935.54 1053.84 932.21 1053.84 932.21C1053.69 930.893 1053.35 929.604 1052.84 928.38C1052.01 926.38 1053.01 922.71 1053.01 922.71C1052.9 919.154 1052.33 915.626 1051.34 912.21C1049.84 907.88 1038.84 856.38 1041.51 850.21C1041.51 850.21 1064.84 846.21 1073.68 849.21L1072.51 889.21C1072.51 889.21 1068.34 901.21 1071.84 904.38C1075.34 907.55 1072.01 917.38 1072.01 917.38C1072.01 917.38 1071.51 919.21 1074.51 925.38C1077.51 931.55 1074.51 934.38 1074.51 934.38V946.21C1074.51 946.21 1072.18 954.21 1074.84 960.71C1077.5 967.21 1074.54 980.71 1073.37 980.92Z" fill="#3F3D56"/>
<path opacity="0.1" d="M1040.75 560.27C1053.73 560.27 1064.25 549.749 1064.25 536.77C1064.25 523.791 1053.73 513.27 1040.75 513.27C1027.77 513.27 1017.25 523.791 1017.25 536.77C1017.25 549.749 1027.77 560.27 1040.75 560.27Z" fill="black"/>
<path d="M1040.75 559.27C1053.73 559.27 1064.25 548.749 1064.25 535.77C1064.25 522.791 1053.73 512.27 1040.75 512.27C1027.77 512.27 1017.25 522.791 1017.25 535.77C1017.25 548.749 1027.77 559.27 1040.75 559.27Z" fill="#FBBEBE"/>
<path opacity="0.1" d="M994.25 783.25L1027.25 765.75C1027.25 765.75 1027.25 769.03 1027.19 774.08C1022.37 776.96 1015.1 781.29 1008.11 785.38C1004.31 787.61 1000.6 789.77 997.42 791.58C996.681 791.981 995.908 792.316 995.11 792.58C994.67 788.19 994.25 783.25 994.25 783.25Z" fill="black"/>
<path opacity="0.1" d="M1074.54 765.71C1074.54 765.71 1074.54 780.22 1074.13 795.13H1074.01C1071.54 795.218 1069.08 795.141 1066.62 794.9C1062.31 794.44 1058.86 793.3 1057.62 791.04C1055.11 786.64 1048.08 781.04 1042.14 776.87C1041.83 768.33 1041.58 760.61 1041.58 760.61L1074.54 765.71Z" fill="black"/>
<path d="M1068.4 638.62C1067.56 645.129 1067.4 651.708 1067.92 658.25C1083.08 670.75 1080.25 697.08 1080.25 697.08C1080.25 697.08 1091.92 750.42 1089.42 755.25C1086.92 760.08 1095.08 789.75 1095.08 789.75C1088.12 791.068 1081.08 791.877 1074.01 792.17C1071.54 792.258 1069.08 792.181 1066.62 791.94C1062.31 791.48 1058.86 790.34 1057.62 788.08C1052.96 779.92 1032.79 767.75 1032.79 767.75C1032.79 767.75 1020.01 775.41 1008.11 782.38C1004.31 784.61 1000.6 786.77 997.42 788.58C994.839 789.949 991.988 790.731 989.07 790.87C974.92 791.92 956.07 783.06 959.07 779.92C962.74 776.08 980.91 708.75 980.91 708.75C980.91 708.75 990.07 667.08 998.07 661.25C999.472 660.191 1000.52 658.729 1001.07 657.06C1003.81 649.45 999.23 637.25 999.23 637.25C999.23 637.25 973.4 605.42 974.56 603.58C975.72 601.74 975.73 591.92 975.73 591.92C975.73 591.92 978.9 576.42 980.73 568.92C982.56 561.42 995.73 559.58 999.56 560.25C1003.39 560.92 1012.05 563.25 1015.71 560.25C1019.37 557.25 1025.55 561.42 1025.55 561.42L1040.73 565.6L1054.38 557.6C1054.38 557.6 1068.06 558.3 1069.23 560.13C1070.4 561.96 1088.4 565.47 1088.4 565.47C1097.56 571.63 1097.23 600.97 1097.23 600.97C1097.23 600.97 1075.23 620.13 1070.73 629.97C1069.56 632.734 1068.78 635.644 1068.4 638.62V638.62Z" fill="#575A89"/>
<path d="M1092.25 596.91L1097.25 600.91L1102.42 647.41L1107.58 694.08C1107.58 694.08 1109.58 698.75 1111.25 698.25C1112.92 697.75 1112.75 725.91 1112.75 725.91C1112.75 725.91 1093.61 714.14 1086.75 729.77L1081.41 692.08C1081.41 692.08 1074.57 653.58 1074.74 650.58C1074.91 647.58 1071.24 615.08 1071.24 615.08L1092.25 596.91Z" fill="#575A89"/>
<path d="M978.25 599.08L974.58 603.58C974.58 603.58 974.92 622.91 972.08 627.58C969.24 632.25 979.92 659.58 983.92 657.91C987.92 656.24 996.92 613.58 996.92 613.08C996.92 612.58 978.25 599.08 978.25 599.08Z" fill="#575A89"/>
<path d="M977.92 626.58C977.92 626.58 966.25 638.41 967.08 644.08C967.91 649.75 979.08 667.56 995.08 657.99C995.08 657.99 1009.92 630.08 977.92 626.58Z" fill="#575A89"/>
<path opacity="0.1" d="M1025.7 980.95C1022.79 981.06 1006.25 980.95 1006.25 980.95C1006.01 980.697 1005.78 980.43 1005.57 980.15C1009.8 978.71 1018.94 976.55 1025.7 980.95Z" fill="black"/>
<path opacity="0.1" d="M1073.01 980.95C1070.1 981.06 1053.56 980.95 1053.56 980.95C1053.32 980.697 1053.09 980.43 1052.88 980.15C1057.09 978.71 1066.23 976.55 1073.01 980.95Z" fill="black"/>
<path opacity="0.1" d="M1009.29 687.82C1006.74 712.28 1007.58 760.82 1008.11 782.38C1004.31 784.61 1000.6 786.77 997.42 788.58C994.839 789.949 991.988 790.731 989.07 790.87C988.01 784.35 1002.69 717.38 1009.29 687.82Z" fill="black"/>
<path opacity="0.1" d="M1012.41 673.94C1012.34 674.29 1011.13 679.61 1009.29 687.82C1010.01 680.81 1011.01 675.78 1012.41 673.94Z" fill="black"/>
<path opacity="0.1" d="M1053.01 671.3C1053.01 671.3 1067.18 760.3 1025.22 771.3C1025.21 771.26 1054.25 766.85 1053.01 671.3Z" fill="black"/>
<path opacity="0.1" d="M1074.01 792.17C1071.54 792.258 1069.08 792.181 1066.62 791.94L1055.3 670.25C1062.52 674.97 1071.16 761.33 1074.01 792.17Z" fill="black"/>
<path opacity="0.1" d="M1023.25 521.95C1024 521.89 1024.76 521.968 1025.48 522.18C1026.54 522.709 1027.5 523.428 1028.3 524.3C1029.6 525.39 1031.16 526.131 1032.83 526.455C1034.5 526.778 1036.22 526.674 1037.84 526.15C1038.98 525.64 1040.19 525.303 1041.43 525.15C1043.34 525.15 1044.99 526.55 1045.98 528.15C1046.97 529.75 1047.48 531.65 1048.33 533.36C1049.18 535.07 1050.54 536.69 1052.41 537.11C1053.31 537.145 1054.19 537.349 1055.01 537.71C1055.51 538.119 1055.9 538.654 1056.13 539.26C1057.69 542.63 1058.93 546.61 1062.26 548.26C1063.48 548.828 1064.82 549.118 1066.17 549.11C1067.54 549.211 1068.92 548.963 1070.17 548.39C1071.4 547.703 1072.42 546.689 1073.11 545.46C1075.19 542.02 1075.43 537.76 1074.94 533.77C1074.33 528.737 1072.54 523.919 1069.71 519.71C1066.73 515.453 1062.68 512.063 1057.96 509.887C1053.24 507.71 1048.03 506.824 1042.86 507.32C1041.05 507.523 1039.27 507.857 1037.51 508.32C1031.15 510.02 1024.91 513.2 1021.05 518.53C1020.12 519.861 1019.09 521.124 1017.98 522.31C1019.73 522.14 1021.49 521.99 1023.25 521.95Z" fill="black"/>
<path d="M1023.25 520.95C1024 520.89 1024.76 520.968 1025.48 521.18C1026.54 521.709 1027.5 522.428 1028.3 523.3C1029.6 524.39 1031.16 525.131 1032.83 525.455C1034.5 525.778 1036.22 525.674 1037.84 525.15C1038.98 524.64 1040.19 524.303 1041.43 524.15C1043.34 524.15 1044.99 525.55 1045.98 527.15C1046.97 528.75 1047.48 530.65 1048.33 532.36C1049.18 534.07 1050.54 535.69 1052.41 536.11C1053.31 536.145 1054.19 536.349 1055.01 536.71C1055.51 537.119 1055.9 537.654 1056.13 538.26C1057.69 541.63 1058.93 545.61 1062.26 547.26C1063.48 547.828 1064.82 548.118 1066.17 548.11C1067.54 548.211 1068.92 547.963 1070.17 547.39C1071.4 546.703 1072.42 545.689 1073.11 544.46C1075.19 541.02 1075.43 536.76 1074.94 532.77C1074.33 527.737 1072.54 522.919 1069.71 518.71C1066.73 514.453 1062.68 511.063 1057.96 508.887C1053.24 506.71 1048.03 505.824 1042.86 506.32C1041.05 506.523 1039.27 506.857 1037.51 507.32C1031.15 509.02 1024.91 512.2 1021.05 517.53C1020.12 518.861 1019.09 520.124 1017.98 521.31C1019.73 521.14 1021.49 520.99 1023.25 520.95Z" fill="#3F3D56"/>
<path opacity="0.1" d="M997.75 576.91C997.75 576.91 998.92 586.25 994.92 588.58C990.92 590.91 997.75 576.91 997.75 576.91Z" fill="black"/>
<path opacity="0.1" d="M1082.58 649.25C1082.58 649.25 1092.08 635.25 1093.42 639.25C1094.76 643.25 1082.58 649.25 1082.58 649.25Z" fill="black"/>
<path opacity="0.1" d="M1083.25 653.91C1083.25 653.91 1092.62 642.41 1093.52 646.91C1094.42 651.41 1083.25 653.91 1083.25 653.91Z" fill="black"/>
<path opacity="0.1" d="M1055.73 640.22C1052.33 640.268 1049.02 639.177 1046.31 637.12H1045.49C1042.68 639.683 1039 641.069 1035.2 640.99C1033.22 641.036 1031.26 640.68 1029.43 639.944C1027.59 639.209 1025.93 638.108 1024.53 636.71H1023.44C1020.56 639.055 1016.94 640.304 1013.23 640.236C1009.52 640.169 1005.95 638.788 1003.16 636.34L999.25 636.27C999.25 636.27 1003.83 648.47 1001.09 656.08L1067.92 657.27C1067.4 650.728 1067.56 644.149 1068.4 637.64V637.55L1064.73 637.48C1062.09 639.311 1058.94 640.269 1055.73 640.22Z" fill="black"/>
<path opacity="0.1" d="M1055.73 642.22C1052.33 642.268 1049.02 641.177 1046.31 639.12H1045.49C1042.68 641.683 1039 643.069 1035.2 642.99C1033.22 643.036 1031.26 642.68 1029.43 641.944C1027.59 641.209 1025.93 640.108 1024.53 638.71H1023.44C1020.56 641.055 1016.94 642.304 1013.23 642.236C1009.52 642.169 1005.95 640.788 1003.16 638.34L999.25 638.27C999.25 638.27 1003.83 650.47 1001.09 658.08L1067.92 659.27C1067.4 652.728 1067.56 646.149 1068.4 639.64V639.55L1064.73 639.48C1062.09 641.311 1058.94 642.269 1055.73 642.22Z" fill="black"/>
<path d="M1055.73 641.22C1052.33 641.268 1049.02 640.177 1046.31 638.12H1045.49C1042.68 640.683 1039 642.069 1035.2 641.99C1033.22 642.036 1031.26 641.68 1029.43 640.944C1027.59 640.209 1025.93 639.108 1024.53 637.71H1023.44C1020.56 640.055 1016.94 641.304 1013.23 641.236C1009.52 641.169 1005.95 639.788 1003.16 637.34L999.25 637.27C999.25 637.27 1003.83 649.47 1001.09 657.08L1067.92 658.27C1067.4 651.728 1067.56 645.149 1068.4 638.64V638.55L1064.73 638.48C1062.09 640.311 1058.94 641.269 1055.73 641.22V641.22Z" fill="#3F3D56"/>
<path opacity="0.1" d="M1052.76 574.54C1052.76 574.54 1066.83 575.44 1066.92 577.44C1067.01 579.44 1052.76 574.54 1052.76 574.54Z" fill="black"/>
<path opacity="0.1" d="M1018.58 566.01C1018.58 566.01 1004.51 566.91 1004.42 568.91C1004.33 570.91 1018.58 566.01 1018.58 566.01Z" fill="black"/>
<path opacity="0.1" d="M1072.35 606.9C1072.21 606.8 1072.07 606.72 1071.93 606.63C1075.53 609.87 1074.93 616.95 1070.51 622.79C1066.09 628.63 1059.38 631.06 1055.3 628.44C1055.43 628.55 1055.54 628.67 1055.68 628.78C1059.68 631.84 1066.68 629.44 1071.3 623.4C1075.92 617.36 1076.37 609.97 1072.35 606.9Z" fill="black"/>
<path opacity="0.1" d="M995.06 622.04C991.5 615.62 991.96 608.53 995.99 605.84C995.84 605.91 995.68 605.97 995.53 606.05C991.11 608.51 990.53 615.88 994.19 622.52C997.85 629.16 1004.45 632.52 1008.87 630.1C1009.02 630.016 1009.16 629.922 1009.29 629.82C1004.88 631.82 998.62 628.46 995.06 622.04Z" fill="black"/>
<path opacity="0.1" d="M999.82 567.9L998.53 569.9L995.24 568.15L996.97 565.49C998.114 566.031 999.097 566.862 999.82 567.9V567.9Z" fill="black"/>
<path d="M978.92 641.91C978.92 641.91 981.85 628.13 977.92 623.75C973.99 619.37 975.25 596.41 981.25 596.91C987.25 597.41 996.25 615.57 994.75 619.41C993.25 623.25 987.58 642.91 987.58 642.91L978.92 641.91Z" fill="#FBBEBE"/>
<path opacity="0.1" d="M1073.01 542.49C1072.32 543.719 1071.3 544.732 1070.07 545.42C1068.82 545.993 1067.44 546.241 1066.07 546.14C1064.72 546.148 1063.38 545.858 1062.16 545.29C1058.83 543.63 1057.59 539.65 1056.03 536.29C1055.83 535.684 1055.48 535.139 1055.01 534.71C1054.2 534.342 1053.33 534.128 1052.44 534.08C1050.57 533.66 1049.22 532.03 1048.36 530.33C1047.5 528.63 1046.99 526.75 1046.01 525.12C1045.03 523.49 1043.37 522.06 1041.46 522.12C1040.22 522.285 1039.01 522.639 1037.87 523.17C1036.25 523.689 1034.53 523.791 1032.86 523.466C1031.19 523.14 1029.63 522.399 1028.33 521.31C1027.53 520.437 1026.57 519.719 1025.51 519.19C1024.79 518.978 1024.03 518.9 1023.28 518.96C1022.13 518.96 1020.99 519.07 1019.84 519.16C1019.27 519.907 1018.66 520.621 1018.01 521.3C1019.76 521.15 1021.52 521 1023.28 520.96C1024.03 520.9 1024.79 520.978 1025.51 521.19C1026.57 521.719 1027.53 522.437 1028.33 523.31C1029.63 524.399 1031.19 525.14 1032.86 525.466C1034.53 525.791 1036.25 525.689 1037.87 525.17C1039.01 524.639 1040.22 524.285 1041.46 524.12C1043.37 524.12 1045.02 525.52 1046.01 527.12C1047 528.72 1047.51 530.62 1048.36 532.33C1049.21 534.04 1050.57 535.66 1052.44 536.08C1053.33 536.128 1054.2 536.342 1055.01 536.71C1055.51 537.119 1055.9 537.654 1056.13 538.26C1057.69 541.63 1058.93 545.61 1062.26 547.26C1063.48 547.828 1064.82 548.118 1066.17 548.11C1067.54 548.211 1068.92 547.963 1070.17 547.39C1071.4 546.702 1072.42 545.689 1073.11 544.46C1074.66 541.633 1075.36 538.415 1075.11 535.2C1075.03 537.768 1074.31 540.275 1073.01 542.49V542.49Z" fill="black"/>
<path d="M983.35 652.84C988.321 652.84 992.35 650.109 992.35 646.74C992.35 643.371 988.321 640.64 983.35 640.64C978.379 640.64 974.35 643.371 974.35 646.74C974.35 650.109 978.379 652.84 983.35 652.84Z" fill="#575A89"/>
<path d="M689.99 986.29C860.37 986.29 998.49 848.17 998.49 677.79C998.49 507.41 860.37 369.29 689.99 369.29C519.61 369.29 381.49 507.41 381.49 677.79C381.49 848.17 519.61 986.29 689.99 986.29Z" fill="#008574"/>
<path d="M851.86 832.82C851.86 881.52 775.3 836.98 693.22 836.98C611.14 836.98 528.12 879.68 528.12 830.98C528.12 803.21 554.58 764.59 592.54 736.54C621.14 715.4 656.26 700.26 691.54 700.26C727.82 700.26 763.36 716.65 791.71 739.15C827.49 767.52 851.86 805.64 851.86 832.82Z" fill="#444053"/>
<path d="M791.7 739.13C748.07 732.56 669.16 724.55 592.54 736.52C621.14 715.38 656.26 700.24 691.54 700.24C727.81 700.24 763.35 716.63 791.7 739.13Z" fill="#F6F8FB"/>
<path opacity="0.05" d="M528.12 460.02C528.12 460.02 435.19 519.43 435.95 612.36C436.71 705.29 528.12 460.02 528.12 460.02Z" fill="black"/>
<path d="M998.37 292.23C998.37 292.23 914.17 287.16 924.1 346.16C924.1 346.16 922.1 356.58 931.58 361.32C931.58 361.32 931.73 356.95 940.21 358.43C943.232 358.936 946.303 359.083 949.36 358.87C953.49 358.589 957.416 356.967 960.54 354.25V354.25C960.54 354.25 984.21 344.48 993.42 305.79C993.42 305.79 1000.23 297.35 999.96 295.19L985.75 301.25C985.75 301.25 990.6 311.5 986.75 320.02C986.75 320.02 986.29 301.63 983.56 302.02C983.01 302.11 976.18 305.57 976.18 305.57C976.18 305.57 984.53 323.43 978.18 336.4C978.18 336.4 980.57 314.4 973.52 306.86L963.52 312.7C963.52 312.7 973.28 331.14 966.66 346.19C966.66 346.19 968.36 323.11 961.42 314.12L952.35 321.19C952.35 321.19 961.52 339.37 955.93 351.85C955.93 351.85 955.2 324.98 950.39 322.95C950.39 322.95 942.46 329.95 941.25 332.82C941.25 332.82 947.53 346.01 943.64 352.97C943.64 352.97 941.25 335.07 939.29 334.97C939.29 334.97 931.39 346.83 930.56 354.97C930.56 354.97 930.91 342.87 937.37 333.84C937.37 333.84 929.73 335.15 925.28 340.11C925.28 340.11 926.51 331.72 939.28 330.99C939.28 330.99 945.81 321.99 947.56 321.45C947.56 321.45 934.81 320.38 927.08 323.81C927.08 323.81 933.88 315.9 949.89 319.49L958.89 312.19C958.89 312.19 942.11 309.89 934.99 312.43C934.99 312.43 943.18 305.43 961.3 310.53L971.05 304.7C971.05 304.7 956.74 301.62 948.21 302.7C948.21 302.7 957.21 297.85 973.9 303.11L980.9 299.98C980.9 299.98 970.41 297.92 967.34 297.6C964.27 297.28 964.11 296.42 964.11 296.42C970.772 295.337 977.603 296.13 983.84 298.71C983.84 298.71 998.62 293.16 998.37 292.23Z" fill="#008574"/>
<path d="M912.01 266C912.01 266 874.01 263.7 878.45 290.36C878.45 290.36 877.56 295.07 881.83 297.21C881.83 297.21 881.89 295.21 885.73 295.91C887.094 296.135 888.48 296.202 889.86 296.11C891.728 295.977 893.503 295.244 894.92 294.02V294.02C894.92 294.02 905.61 289.6 909.77 272.12C909.77 272.12 912.85 268.31 912.77 267.33L906.35 270.07C906.35 270.07 908.55 274.7 906.82 278.55C906.82 278.55 906.61 270.24 905.38 270.44C905.13 270.44 902.04 272.04 902.04 272.04C902.04 272.04 905.82 280.11 902.97 285.97C902.97 285.97 904.05 276.03 900.87 272.62L896.35 275.26C896.35 275.26 900.76 283.6 897.77 290.4C897.77 290.4 898.53 279.97 895.4 275.91L891.3 279.1C891.3 279.1 895.44 287.31 892.92 292.95C892.92 292.95 892.59 280.81 890.41 279.89C890.41 279.89 886.83 283.05 886.28 284.35C886.28 284.35 889.12 290.35 887.36 293.46C887.36 293.46 886.28 285.37 885.36 285.34C885.36 285.34 881.79 290.69 881.42 294.34C881.592 290.943 882.651 287.651 884.49 284.79C882.432 285.179 880.534 286.163 879.03 287.62C879.03 287.62 879.58 283.83 885.37 283.5C885.37 283.5 888.32 279.44 889.11 279.19C889.11 279.19 883.35 278.71 879.86 280.26C879.86 280.26 882.93 276.68 890.17 278.26L894.17 274.97C894.17 274.97 886.59 273.97 883.37 275.07C883.37 275.07 887.07 271.91 895.26 274.22L899.66 271.58C899.66 271.58 893.2 270.19 889.34 270.69C889.34 270.69 893.41 268.5 900.95 270.88L904.1 269.46C904.1 269.46 899.36 268.53 897.98 268.39C896.6 268.25 896.51 267.86 896.51 267.86C899.512 267.361 902.594 267.707 905.41 268.86C905.41 268.86 912.12 266.42 912.01 266Z" fill="#008574"/>
<path opacity="0.1" d="M1244.09 953.01C1258.96 953.01 1271.02 950.973 1271.02 948.46C1271.02 945.947 1258.96 943.91 1244.09 943.91C1229.22 943.91 1217.16 945.947 1217.16 948.46C1217.16 950.973 1229.22 953.01 1244.09 953.01Z" fill="#008574"/>
<path opacity="0.1" d="M217.77 1028.7C232.643 1028.7 244.7 1026.66 244.7 1024.15C244.7 1021.64 232.643 1019.6 217.77 1019.6C202.897 1019.6 190.84 1021.64 190.84 1024.15C190.84 1026.66 202.897 1028.7 217.77 1028.7Z" fill="#008574"/>
<path opacity="0.1" d="M374.1 1034.41C388.973 1034.41 401.03 1032.37 401.03 1029.86C401.03 1027.35 388.973 1025.31 374.1 1025.31C359.227 1025.31 347.17 1027.35 347.17 1029.86C347.17 1032.37 359.227 1034.41 374.1 1034.41Z" fill="#008574"/>
<path d="M1185.15 1004.02C1207.36 1004.02 1225.36 1000.98 1225.36 997.22C1225.36 993.464 1207.36 990.42 1185.15 990.42C1162.94 990.42 1144.94 993.464 1144.94 997.22C1144.94 1000.98 1162.94 1004.02 1185.15 1004.02Z" fill="#008574"/>
<path d="M1201.77 986.11C1203.61 984.612 1204.94 982.593 1205.61 980.32C1206.1 978.03 1205.12 975.27 1202.93 974.43C1200.47 973.49 1197.84 975.2 1195.85 976.92C1193.86 978.64 1191.57 980.6 1188.96 980.24C1190.3 979.025 1191.31 977.482 1191.87 975.762C1192.44 974.043 1192.55 972.206 1192.2 970.43C1192.09 969.694 1191.78 969.003 1191.3 968.43C1189.93 966.97 1187.46 967.59 1185.82 968.74C1180.62 972.4 1179.17 979.46 1179.14 985.82C1178.62 983.53 1179.06 981.14 1179.05 978.82C1179.04 976.5 1178.39 973.82 1176.41 972.59C1175.18 971.934 1173.8 971.61 1172.41 971.65C1170.07 971.56 1167.47 971.79 1165.87 973.5C1163.87 975.63 1164.4 979.19 1166.13 981.5C1167.86 983.81 1170.48 985.31 1172.89 986.92C1174.83 988.073 1176.48 989.649 1177.73 991.53C1177.88 991.795 1178 992.073 1178.09 992.36H1192.74C1196.02 990.693 1199.06 988.591 1201.77 986.11V986.11Z" fill="#008574"/>
<path d="M230.34 902.26C230.34 902.26 235.83 909.44 227.8 920.26C219.77 931.08 213.15 940.26 215.8 947.02C215.8 947.02 227.91 926.88 237.8 926.59C247.69 926.3 241.18 914.37 230.34 902.26Z" fill="#008574"/>
<path opacity="0.1" d="M230.34 902.26C230.817 902.954 231.194 903.711 231.46 904.51C241.08 915.81 246.2 926.36 236.96 926.62C228.34 926.87 217.96 942.27 215.53 946.16C215.615 946.461 215.715 946.758 215.83 947.05C215.83 947.05 227.94 926.91 237.83 926.62C247.72 926.33 241.18 914.37 230.34 902.26Z" fill="black"/>
<path d="M240.55 911.41C240.55 913.94 240.26 915.99 239.91 915.99C239.56 915.99 239.28 913.99 239.28 911.41C239.28 908.83 239.63 910.07 239.99 910.07C240.35 910.07 240.55 908.88 240.55 911.41Z" fill="#FFD037"/>
<path d="M244.01 914.43C241.79 915.64 239.86 916.37 239.69 916.06C239.52 915.75 241.19 914.53 243.41 913.32C245.63 912.11 244.75 912.99 244.92 913.32C245.09 913.65 246.27 913.22 244.01 914.43Z" fill="#FFD037"/>
<path d="M201.32 902.26C201.32 902.26 195.83 909.44 203.85 920.26C211.87 931.08 218.5 940.26 215.85 947.02C215.85 947.02 203.73 926.88 193.85 926.59C183.97 926.3 190.47 914.37 201.32 902.26Z" fill="#008574"/>
<path opacity="0.1" d="M201.32 902.26C200.839 902.951 200.462 903.709 200.2 904.51C190.58 915.81 185.45 926.36 194.7 926.62C203.31 926.87 213.7 942.27 216.12 946.16C216.038 946.461 215.942 946.758 215.83 947.05C215.83 947.05 203.71 926.91 193.83 926.62C183.95 926.33 190.47 914.37 201.32 902.26Z" fill="black"/>
<path d="M191.11 911.41C191.11 913.94 191.39 915.99 191.74 915.99C192.09 915.99 192.37 913.99 192.37 911.41C192.37 908.83 192.02 910.07 191.67 910.07C191.32 910.07 191.11 908.88 191.11 911.41Z" fill="#FFD037"/>
<path d="M187.6 914.43C189.82 915.64 191.76 916.37 191.93 916.06C192.1 915.75 190.43 914.53 188.21 913.32C185.99 912.11 186.86 912.99 186.7 913.32C186.54 913.65 185.38 913.22 187.6 914.43Z" fill="#FFD037"/>
<path d="M192.86 946.11C192.86 946.11 208.22 945.64 212.86 942.34C217.5 939.04 236.49 935.11 237.64 940.34C238.79 945.57 260.72 966.64 243.38 966.78C226.04 966.92 203.09 964.07 198.47 961.26C193.85 958.45 192.86 946.11 192.86 946.11Z" fill="#A8A8A8"/>
<path opacity="0.2" d="M243.67 964.99C226.33 965.13 203.38 962.28 198.76 959.47C195.24 957.33 193.84 949.64 193.37 946.09H192.86C192.86 946.09 193.86 958.48 198.45 961.29C203.04 964.1 226.02 966.95 243.36 966.81C248.36 966.81 250.09 964.98 250 962.35C249.3 963.96 247.4 964.96 243.67 964.99Z" fill="black"/>
<path d="M580.31 637.34C586.18 637.01 613.81 634.93 631.36 624.92C634.179 623.262 637.363 622.324 640.63 622.19C646.21 622.03 652.63 624.36 648.52 637.4C641.86 658.73 603.19 682.73 579.19 681.4C556.11 680.12 528.73 670.82 510.65 638.12C508.918 634.974 508.065 631.419 508.18 627.83C508.39 621.23 510.79 612.96 523.18 622.18C539.92 634.63 571.68 636.99 578.05 637.34C578.803 637.38 579.557 637.38 580.31 637.34V637.34Z" fill="#444053"/>
<path d="M802.31 637.34C808.18 637.01 835.81 634.93 853.36 624.92C856.179 623.262 859.363 622.324 862.63 622.19C868.21 622.03 874.63 624.36 870.52 637.4C863.86 658.73 825.19 682.73 801.19 681.4C778.11 680.12 750.73 670.82 732.65 638.12C730.918 634.974 730.064 631.419 730.18 627.83C730.39 621.23 732.79 612.96 745.18 622.18C761.92 634.63 793.68 636.99 800.05 637.34C800.803 637.38 801.557 637.38 802.31 637.34V637.34Z" fill="#444053"/>
</g>
<defs>
<linearGradient id="paint0_linear_28_120" x1="1063.14" y1="980.99" x2="1063.14" y2="486.95" gradientUnits="userSpaceOnUse">
<stop stop-color="#808080" stop-opacity="0.25"/>
<stop offset="0.54" stop-color="#808080" stop-opacity="0.12"/>
<stop offset="1" stop-color="#808080" stop-opacity="0.1"/>
</linearGradient>
<clipPath id="clip0_28_120">
<rect width="1100.02" height="811.41" fill="white" transform="translate(171 223)"/>
</clipPath>
</defs>
</svg>
