<svg width="57" height="57" viewBox="0 0 57 57" fill="none" xmlns="http://www.w3.org/2000/svg">
<path d="M45.125 0H11.875C5.31763 0 0 5.31763 0 11.875V45.125C0 51.6824 5.31763 57 11.875 57H45.125C51.6847 57 57 51.6824 57 45.125V11.875C57 5.31763 51.6847 0 45.125 0ZM44.7949 21.9379C45.2912 32.9033 37.1141 45.1298 22.6361 45.1298C18.2329 45.1298 14.136 43.8401 10.6851 41.6266C14.8224 42.1135 18.9501 40.9664 22.2276 38.399C18.8148 38.3349 15.9363 36.081 14.9459 32.984C16.169 33.2167 17.3708 33.1479 18.4656 32.851C14.7155 32.0981 12.1291 28.7209 12.2123 25.1085C13.262 25.6927 14.4661 26.0442 15.7415 26.0846C12.2716 23.7642 11.2884 19.1805 13.3285 15.675C17.1736 20.3918 22.9188 23.4959 29.3978 23.8212C28.2601 18.9454 31.9627 14.25 36.9954 14.25C39.235 14.25 41.2632 15.1953 42.6835 16.7129C44.46 16.3638 46.1296 15.7154 47.6378 14.8224C47.0535 16.644 45.8185 18.1711 44.2106 19.1354C45.7876 18.9454 47.291 18.5274 48.6875 17.9075C47.6449 19.4655 46.322 20.8383 44.7949 21.9379Z" fill="#1A8CD8"/>
</svg>
